<?xml version="1.0" encoding="UTF-8"?>
<svg version="1.1" xmlns="http://www.w3.org/2000/svg" width="1024" height="1024">
<path d="M0 0 C0.66 0 1.32 0 2 0 C2 0.66 2 1.32 2 2 C3.98 2 5.96 2 8 2 C8 1.34 8 0.68 8 0 C8.84975403 0.32498978 9.69950806 0.64997955 10.57501221 0.9848175 C14.17720016 2.05252296 17.05141037 2.24748186 20.79980469 2.24291992 C21.45095749 2.24481827 22.10211029 2.24671661 22.772995 2.24867249 C24.90608097 2.25235063 27.03881978 2.24172232 29.171875 2.23046875 C30.66066447 2.22927558 32.1494547 2.22882408 33.63824463 2.2290802 C36.7482987 2.22752069 39.8582368 2.21926888 42.96826172 2.20581055 C46.95869412 2.18876222 50.949 2.18499819 54.93946457 2.18575573 C58.00888277 2.18548424 61.07827321 2.18000747 64.14768219 2.17275429 C65.61972087 2.16956917 67.09176269 2.16760058 68.56380463 2.16686058 C70.61518254 2.16469869 72.6664246 2.15595956 74.71777344 2.14526367 C75.88548279 2.14145187 77.05319214 2.13764008 78.25628662 2.13371277 C80.96274217 2.18660638 80.96274217 2.18660638 83 1 C85.33624728 1.31225662 87.66928452 1.64882925 90 2 C102.31879162 2.51265473 114.69921538 1.63383514 127 1 C127 1.66 127 2.32 127 3 C127.99 2.67 128.98 2.34 130 2 C133.22851536 1.94195927 136.44039072 1.97734973 139.66796875 2.0390625 C143.23093502 2.07962758 146.64524397 1.95308968 150.17805481 1.4692688 C154.99442709 0.91437215 159.59841939 1.10489482 164.42456055 1.42919922 C177.02005037 2.1445023 189.59464779 2.14519107 202.20703125 2.1328125 C204.67217519 2.13348843 207.13731906 2.13446085 209.60246277 2.13571167 C214.72969202 2.13717367 219.85690368 2.1350819 224.98413086 2.13037109 C231.51404875 2.12465956 238.04392564 2.12797141 244.57384205 2.13394356 C249.65026655 2.137577 254.7266815 2.13639811 259.80310631 2.13381577 C262.20975436 2.13315497 264.61640331 2.13394482 267.02305031 2.13629532 C278.78816119 2.14527341 290.47326788 2.0996518 302.2026825 1.11642456 C305 1 305 1 307 2 C309.73361023 2.08803593 312.44134404 2.11524205 315.17480469 2.09765625 C316.02067642 2.09619598 316.86654816 2.09473572 317.73805237 2.0932312 C319.580702 2.08941828 321.42334794 2.0832945 323.26598358 2.07516479 C326.1936262 2.0624052 329.12122345 2.05588492 332.04888916 2.05102539 C339.33203449 2.03764513 346.61513764 2.01362763 353.89825439 1.98962402 C360.03396624 1.96976619 366.16966113 1.9541681 372.30539703 1.94406128 C375.16885914 1.93764676 378.03225123 1.9251307 380.89569092 1.91235352 C408.60239576 1.8284752 408.60239576 1.8284752 411.74432373 4.4621582 C412.36588348 5.22338989 412.36588348 5.22338989 413 6 C414.38070423 6.89868322 415.77816554 7.77191613 417.1875 8.625 C426.4638224 14.76396458 433.01119408 23.41682108 435.54821819 34.36596984 C435.97899985 36.87756251 436.13017912 39.17799544 436.1386652 41.72260761 C436.14413964 42.64869589 436.14961409 43.57478417 436.15525442 44.52893573 C436.15672158 46.04206852 436.15672158 46.04206852 436.15821838 47.58576965 C436.16315636 48.66401605 436.16809434 49.74226244 436.17318195 50.85318297 C436.18856037 54.47218878 436.19691856 58.09117685 436.20532227 61.71020508 C436.21490051 64.30204423 436.22491056 66.89388183 436.23532104 69.48571777 C436.25706396 75.06886368 436.27521642 80.65201198 436.29092598 86.23517799 C436.31364452 94.3074847 436.34178459 102.37976535 436.37124526 110.45204993 C436.41889685 123.54899509 436.46216762 136.6459509 436.50268555 149.74291992 C436.54205285 162.46493357 436.58348204 175.18693775 436.62768555 187.90893555 C436.63040982 188.69320177 436.63313409 189.47746799 436.63594092 190.28549985 C436.6496206 194.21995753 436.66334083 198.15441508 436.67708123 202.08887255 C436.79100778 234.72589549 436.89782558 267.36293812 437 300 C438.65 300.33 440.3 300.66 442 301 C442 301.66 442 302.32 442 303 C444.31 303.33 446.62 303.66 449 304 C449 304.66 449 305.32 449 306 C450.216875 306.350625 451.43375 306.70125 452.6875 307.0625 C472.29452674 313.64923554 490.74841449 328.10253582 505.79296875 341.98046875 C507.71482152 343.73904907 509.67647489 345.40819775 511.6875 347.0625 C522.74950614 356.53321987 531.74181526 369.60546879 539.44140625 381.8671875 C539.95574219 382.57101562 540.47007812 383.27484375 541 384 C541.66 384 542.32 384 543 384 C543.11988281 384.73758545 543.23976563 385.4751709 543.36328125 386.23510742 C543.98836224 388.94946409 544.81893338 390.83027942 546.1875 393.23828125 C546.63496582 394.04700684 547.08243164 394.85573242 547.54345703 395.68896484 C548.02411621 396.55473145 548.50477539 397.42049805 549 398.3125 C553.31206726 406.29954397 556.94760066 414.3724419 560.125 422.875 C560.50269531 423.87829346 560.88039063 424.88158691 561.26953125 425.9152832 C563.10544786 430.96362732 564.50773846 435.64479108 565 441 C565.99 441 566.98 441 568 441 C567.80792969 441.53238281 567.61585938 442.06476563 567.41796875 442.61328125 C566.86314616 445.78147382 567.54075426 448.06759897 568.3125 451.1875 C578.43092415 496.09667019 572.61547782 547.68730777 550.06103516 588.08251953 C548.905004 590.17167478 547.80154398 592.28439303 546.69921875 594.40234375 C539.24582515 608.52060313 530.14975011 620.98703202 519.2265625 632.62109375 C517.26412685 634.71780132 515.40757701 636.86327314 513.5625 639.0625 C485.3429666 671.36038089 442.49688496 691.14962557 401.125 699.25 C400.29363525 699.41338867 399.46227051 699.57677734 398.60571289 699.74511719 C361.17850337 706.67703989 319.91121152 701.94124495 285 687 C284.16694336 686.64454102 283.33388672 686.28908203 282.47558594 685.92285156 C269.37562451 680.22870884 257.50040754 673.21994037 245.72973633 665.14819336 C242.87787422 663.25513655 241.18357342 662.8746794 237.79347229 662.87301636 C236.91157227 662.87019653 236.02967224 662.86737671 235.12104797 662.86447144 C234.15112411 662.86649567 233.18120026 662.8685199 232.18188477 662.87060547 C231.16228668 662.86885315 230.1426886 662.86710083 229.0921936 662.86529541 C225.7085807 662.86088009 222.32501972 662.863814 218.94140625 662.8671875 C216.59732554 662.86651432 214.2532449 662.86554417 211.90916443 662.86428833 C206.9904616 662.86281175 202.0717769 662.86496446 197.15307617 662.86962891 C190.83992601 662.87532302 184.52681838 662.87204893 178.21366978 662.86605644 C173.37106504 662.8624471 168.52847044 662.8635912 163.6858654 662.86618423 C161.3577874 662.86685263 159.02970849 662.86602812 156.70163155 662.86370468 C153.45023277 662.86117242 150.19890336 662.86502709 146.94750977 662.87060547 C145.97961014 662.86858124 145.01171051 662.86655701 144.01448059 662.86447144 C143.12976074 662.86729126 142.24504089 662.87011108 141.33351135 662.87301636 C140.18009672 662.8735819 140.18009672 662.8735819 139.00338078 662.87415886 C136.79137704 662.92724543 136.79137704 662.92724543 134 664 C134 663.34 134 662.68 134 662 C128.05503441 662.11804905 122.11024294 662.24228286 116.16552734 662.37231445 C114.14212584 662.41569395 112.11868701 662.45736678 110.09521484 662.49731445 C107.19096616 662.55494408 104.28690589 662.6186594 101.3828125 662.68359375 C100.47443634 662.70030624 99.56606018 662.71701874 98.63015747 662.73423767 C97.78943695 662.75418289 96.94871643 662.77412811 96.08251953 662.79467773 C95.34083527 662.81022202 94.599151 662.8257663 93.83499146 662.84178162 C91.90325896 662.89473496 91.90325896 662.89473496 90 664 C90 663.34 90 662.68 90 662 C81.42912707 662.1074206 72.85834508 662.2200374 64.28763008 662.33933926 C60.3081555 662.39456799 56.32867356 662.4479879 52.34912109 662.49731445 C48.51060359 662.54495877 44.67217659 662.59730158 40.83376694 662.65294075 C39.36733114 662.67336401 37.90087053 662.69207715 36.43439102 662.70907402 C34.38471735 662.73311876 32.33521518 662.763173 30.28564453 662.79467773 C29.11760284 662.81022202 27.94956116 662.8257663 26.74612427 662.84178162 C24.03798594 662.81641289 24.03798594 662.81641289 22 664 C22 663.34 22 662.68 22 662 C20.83124329 662.00666183 19.66248657 662.01332367 18.45831299 662.02018738 C7.45191202 662.08096307 -3.55445496 662.12595565 -14.56098557 662.15543652 C-20.21976456 662.17110236 -25.87840825 662.19235759 -31.53710938 662.22631836 C-36.99654727 662.25887876 -42.4558549 662.27684609 -47.91538239 662.28463173 C-49.99983013 662.29018119 -52.08427063 662.30101773 -54.16866302 662.31719017 C-57.08493033 662.33892014 -60.00065714 662.34196876 -62.91699219 662.34057617 C-64.21387466 662.35675491 -64.21387466 662.35675491 -65.53695679 662.3732605 C-69.98956977 662.3502044 -72.68158546 662.2838358 -76 659 C-77.76700169 657.93113987 -79.53813339 656.86908889 -81.3125 655.8125 C-86.73509399 652.38617555 -92.73120564 648.17827107 -94.6796875 641.76171875 C-94.78539062 641.18035156 -94.89109375 640.59898437 -95 640 C-96.65 639.67 -98.3 639.34 -100 639 C-100.144375 638.401875 -100.28875 637.80375 -100.4375 637.1875 C-100.8872439 635.43849596 -101.42892341 633.71322977 -102 632 C-101.01 632 -100.02 632 -99 632 C-99.66 626.72 -100.32 621.44 -101 616 C-101.33 616 -101.66 616 -102 616 C-102 592.57 -102 569.14 -102 545 C-101.67 545 -101.34 545 -101 545 C-101 506.39 -101 467.78 -101 428 C-101.33 428 -101.66 428 -102 428 C-102 424.37 -102 420.74 -102 417 C-101.67 417 -101.34 417 -101 417 C-101 402.15 -101 387.3 -101 372 C-101.33 372 -101.66 372 -102 372 C-102 349.66666667 -102 327.33333333 -102 305 C-101.67 305 -101.34 305 -101 305 C-101 295.43 -101 285.86 -101 276 C-101.33 276 -101.66 276 -102 276 C-102 273.69 -102 271.38 -102 269 C-101.67 269 -101.34 269 -101 269 C-101 262.07 -101 255.14 -101 248 C-101.33 248 -101.66 248 -102 248 C-102 236.33333333 -102 224.66666667 -102 213 C-101.67 213 -101.34 213 -101 213 C-101 211.35 -101 209.7 -101 208 C-101.33 208 -101.66 208 -102 208 C-102 199.09 -102 190.18 -102 181 C-101.67 181 -101.34 181 -101 181 C-101 179.02 -101 177.04 -101 175 C-101.33 175 -101.66 175 -102 175 C-102 169.06 -102 163.12 -102 157 C-101.67 157 -101.34 157 -101 157 C-101 154.03 -101 151.06 -101 148 C-101.33 148 -101.66 148 -102 148 C-102 133.33333333 -102 118.66666667 -102 104 C-102.01053531 102.01440406 -102.02112614 100.02880842 -102.03173828 98.04321289 C-102.0639028 91.69142196 -102.08693903 85.33965134 -102.10362434 78.98780155 C-102.11407925 75.13838723 -102.12827333 71.28906093 -102.15087891 67.43969727 C-102.17256579 63.72327748 -102.1845594 60.00694257 -102.18975449 56.2904644 C-102.19345675 54.87144062 -102.20068613 53.45242162 -102.21146011 52.03343391 C-102.22591972 50.05106241 -102.22681645 48.06860586 -102.22705078 46.08618164 C-102.231492 44.95668594 -102.23593323 43.82719025 -102.24050903 42.66346741 C-102 40 -102 40 -100 38 C-99.36689338 35.99420311 -98.79195253 33.96982197 -98.25 31.9375 C-94.74841652 20.2612639 -88.05830222 12.26383836 -77.5 6.1875 C-64.38536511 0.28571901 -48.23866906 1.77119243 -34.1875 1.9375 C-31.33002952 1.96520501 -28.47260948 1.98983535 -25.61506653 2.00868225 C-23.85434801 2.02086484 -22.09365606 2.03839427 -20.33305359 2.06199646 C-16.95977141 2.08991859 -14.22434259 2.07478086 -11 1 C-9.32995171 1.31595508 -7.66362417 1.65179959 -6 2 C-4.0003559 2.03772913 -1.99945939 2.04649906 0 2 C0 1.34 0 0.68 0 0 Z M-59.94031781 43.44255191 C-61.58026362 47.4004143 -61.41042209 51.17021286 -61.37752342 55.41415405 C-61.38188374 56.38332079 -61.38624407 57.35248753 -61.39073652 58.35102296 C-61.40175283 61.62396601 -61.39124097 64.89649307 -61.38095093 68.16943359 C-61.38440496 70.52942306 -61.38916781 72.88941092 -61.39513266 75.24939537 C-61.40507658 80.39353359 -61.40562864 85.53758603 -61.39799118 90.68172455 C-61.38666496 98.33110348 -61.39243385 105.98040247 -61.4016161 113.62978083 C-61.41743252 127.28985557 -61.41603653 140.94988829 -61.40737936 154.60996705 C-61.39984041 166.56393681 -61.39785898 178.51789114 -61.4014473 190.47186279 C-61.40167645 191.26399769 -61.40190561 192.05613259 -61.40214171 192.87227158 C-61.40307568 196.08759523 -61.40403088 199.30291887 -61.405021 202.5182425 C-61.41420336 232.6964532 -61.40586911 262.87463709 -61.38973031 293.05284366 C-61.3754929 319.87964451 -61.37676675 346.70640265 -61.39111328 373.53320312 C-61.40716813 403.65530109 -61.41355222 433.77737536 -61.40427649 463.89947701 C-61.4033143 467.1090304 -61.40237578 470.3185838 -61.4014473 473.52813721 C-61.40121006 474.31844359 -61.40097283 475.10874997 -61.40072841 475.92300503 C-61.39731225 487.87110083 -61.40131377 499.81917952 -61.40888596 511.76727295 C-61.41745057 525.34925618 -61.41534742 538.93119072 -61.39904372 552.51316786 C-61.39021467 560.11977501 -61.38968879 567.72627678 -61.40098225 575.33288126 C-61.40847303 581.00222047 -61.40038772 586.67144983 -61.38605852 592.34077191 C-61.38269022 594.64218709 -61.38445033 596.94361627 -61.39168589 599.24502254 C-61.40072932 602.35883578 -61.39153246 605.47206394 -61.37752342 608.58584595 C-61.38454692 609.4918801 -61.39157042 610.39791424 -61.39880675 611.33140397 C-61.36050736 616.11912411 -61.36050736 616.11912411 -59.66390479 620.52588463 C-56.86236238 623.00787564 -54.2098242 623.12479698 -50.63280964 623.12304783 C-49.28622602 623.1260344 -49.28622602 623.1260344 -47.91243869 623.12908131 C-46.92509445 623.12616847 -45.93775021 623.12325563 -44.92048645 623.12025452 C-43.87253377 623.12110894 -42.82458109 623.12196337 -41.74487227 623.12284368 C-38.21637233 623.12449714 -34.68791942 623.11897925 -31.15942383 623.11352539 C-28.63684592 623.11324346 -26.11426793 623.11340136 -23.59169006 623.1139679 C-18.1520051 623.11419597 -12.71233541 623.11135067 -7.27265358 623.10573006 C0.59224612 623.09760885 8.45714002 623.0949992 16.32204346 623.09374207 C29.08180504 623.09155253 41.84156024 623.08489509 54.60131836 623.07543945 C66.99747689 623.06626281 79.39363368 623.05918321 91.78979492 623.05493164 C92.93561897 623.05453756 92.93561897 623.05453756 94.10459097 623.05413551 C97.9367013 623.05283049 101.76881164 623.05156678 105.60092199 623.05032361 C137.40061934 623.03995404 169.20030868 623.02226413 201 623 C200.06939316 621.58873131 199.13668264 620.17884971 198.203125 618.76953125 C197.68395508 617.98425049 197.16478516 617.19896973 196.62988281 616.38989258 C194.62407288 613.44877912 192.48550569 610.63060811 190.296875 607.82421875 C188.96669593 605.95315361 187.99288437 604.0660445 187 602 C185.6483633 599.75244247 185.6483633 599.75244247 184 598 C183.01 598 182.02 598 181 598 C181.22558594 597.45859375 181.45117188 596.9171875 181.68359375 596.359375 C182.14282611 592.93497565 180.77947654 591.19338835 179.0625 588.25 C178.49660156 587.26515625 177.93070313 586.2803125 177.34765625 585.265625 C176.90292969 584.51796875 176.45820313 583.7703125 176 583 C175.34 583 174.68 583 174 583 C173.89405518 582.45327637 173.78811035 581.90655273 173.67895508 581.34326172 C172.51237769 575.68599505 170.79814292 570.49140973 168.6875 565.125 C165.7635593 557.48660697 163.46548271 549.81894687 161.51049805 541.87939453 C160.86725642 538.1354531 160.86725642 538.1354531 159 535 C158.78641334 533.38455234 158.63199041 531.76118323 158.50390625 530.13671875 C158.42156738 529.13817871 158.33922852 528.13963867 158.25439453 527.11083984 C158.17044434 526.0842627 158.08649414 525.05768555 158 524 C157.82451231 522.15206628 157.64619058 520.30439919 157.46484375 518.45703125 C152.16658584 462.73010105 166.12076393 407.89627039 202.0625 364.2734375 C205.62288626 360.0957262 209.24210836 356.0019843 213 352 C213.49209961 351.47390137 213.98419922 350.94780273 214.49121094 350.40576172 C223.53856583 340.81268456 233.27573619 332.658389 244 325 C244.6408252 324.54109375 245.28165039 324.0821875 245.94189453 323.609375 C267.43078198 308.38411481 291.42362251 298.13242871 317 292 C317.87446777 291.78827148 318.74893555 291.57654297 319.64990234 291.35839844 C342.47657606 286.09871937 368.73962479 285.90800878 392 289 C392.33 289.33 392.66 289.66 393 290 C394.66617115 290.04063832 396.33388095 290.042721 398 290 C398.04561399 259.25574509 398.08101357 228.5114979 398.10213066 197.76721724 C398.10463211 194.13851261 398.10722075 190.50980805 398.10986328 186.88110352 C398.1103879 186.15868629 398.11091252 185.43626907 398.11145304 184.69196042 C398.12015835 172.99091493 398.13592903 161.28988908 398.15430559 149.58885524 C398.17300112 137.5847106 398.18411599 125.58057624 398.18817699 113.57641762 C398.19067623 106.83294773 398.19669311 100.08951879 398.21146011 93.34606361 C398.22500879 87.00225502 398.22922813 80.65850942 398.22621536 74.31468773 C398.22676674 71.98341403 398.23076028 69.65213828 398.23841095 67.32087708 C398.24832961 64.14334952 398.24598004 60.96606129 398.24050903 57.78852844 C398.24633472 56.86148316 398.2521604 55.93443788 398.25816262 54.97930032 C398.23232778 48.75649655 398.23232778 48.75649655 396 43 C393.01822427 41.50911214 389.97291989 41.85903257 386.70323277 41.86577892 C385.93867896 41.86342669 385.17412516 41.86107446 384.38640305 41.85865095 C381.79759152 41.85193846 379.20882991 41.85241985 376.62001038 41.85282898 C374.7560118 41.84953177 372.89201393 41.84580651 371.02801698 41.8416875 C365.88481509 41.83164342 360.74162486 41.82794686 355.59841454 41.82529819 C350.05982154 41.82140236 344.52123784 41.81182366 338.98265076 41.80308533 C325.59811409 41.78330235 312.21357663 41.7732532 298.82902899 41.76435754 C292.53295015 41.75997837 286.23687216 41.75461067 279.94079399 41.74936867 C259.02410725 41.73235593 238.10742069 41.71783483 217.19072819 41.71061993 C215.83766217 41.71014517 214.48459615 41.70966928 213.13153013 41.70919226 C212.12500917 41.7088377 212.12500917 41.7088377 211.09815445 41.70847597 C207.69833018 41.70727475 204.29850591 41.7060593 200.89868164 41.70483398 C200.22397079 41.70459383 199.54925995 41.70435368 198.85410331 41.70410626 C176.96559497 41.69620876 155.07714073 41.67276746 133.18865603 41.64027804 C110.06037721 41.60601087 86.93212877 41.58627292 63.80382055 41.58297569 C51.19071825 41.58080601 38.57769549 41.57199051 25.96461678 41.54651451 C15.22729537 41.52487777 4.49007283 41.51672236 -6.24726789 41.52648129 C-11.73012718 41.53104623 -17.21278219 41.52901318 -22.69561386 41.50971985 C-27.70860414 41.49223134 -32.72123896 41.49296822 -37.73423225 41.50861714 C-39.55386814 41.51101514 -41.37352774 41.5065577 -43.19312715 41.49478849 C-45.65498947 41.47984339 -48.11556361 41.48921941 -50.57739162 41.50501537 C-51.29410303 41.49479317 -52.01081443 41.48457096 -52.74924436 41.47403899 C-55.66689163 41.51527643 -57.56745182 41.67841701 -59.94031781 43.44255191 Z M-101 118 C-101 122.62 -101 127.24 -101 132 C-100.67 132 -100.34 132 -100 132 C-100 127.38 -100 122.76 -100 118 C-100.33 118 -100.66 118 -101 118 Z M-101 233 C-100 236 -100 236 -100 236 Z M-101 325 C-101 326.98 -101 328.96 -101 331 C-100.67 331 -100.34 331 -100 331 C-100 329.02 -100 327.04 -100 325 C-100.33 325 -100.66 325 -101 325 Z M-101 561 C-100 563 -100 563 -100 563 Z M-99 632 C-98 635 -98 635 -98 635 Z M-98 636 C-97 638 -97 638 -97 638 Z " fill="#073E66" transform="translate(286,144)"/>
<path d="M0 0 C0.73241409 -0.00705963 1.46482819 -0.01411926 2.21943665 -0.02139282 C53.49640868 -0.40284582 98.49123578 14.5144442 135.73095703 50.7109375 C147.23874722 62.28448649 156.68496312 75.73567789 164.1796875 90.203125 C164.51597168 90.84975098 164.85225586 91.49637695 165.19873047 92.16259766 C182.26701792 125.47341698 188.21957029 167.56017763 179.1796875 204.203125 C178.97569336 205.03908203 178.77169922 205.87503906 178.56152344 206.73632812 C171.34675845 235.44836228 158.47837857 260.82800014 137.94140625 282.265625 C136.0529827 284.23907705 134.27374873 286.26199794 132.54296875 288.375 C129.40956421 292.12472708 125.94582824 295.10665692 122.1796875 298.203125 C120.82423828 299.33234375 120.82423828 299.33234375 119.44140625 300.484375 C93.21302497 321.54706493 58.46678258 336.21453435 24.53515625 336.40625 C23.72589188 336.41195007 22.9166275 336.41765015 22.08283997 336.42352295 C20.37433148 336.43291774 18.66580532 336.43948479 16.95727539 336.44335938 C14.41192547 336.45295632 11.86742301 336.48398664 9.32226562 336.515625 C-5.70827942 336.61362099 -20.57383262 335.07252925 -34.9453125 330.453125 C-35.76676758 330.19635986 -36.58822266 329.93959473 -37.43457031 329.67504883 C-81.61133284 315.52401459 -117.53596595 285.30538741 -139.05688477 244.19897461 C-146.04566387 230.43523837 -150.8478123 216.34316884 -153.8203125 201.203125 C-153.99836426 200.37594971 -154.17641602 199.54877441 -154.35986328 198.6965332 C-156.22503144 189.13150419 -156.21967176 179.59823923 -156.1953125 169.890625 C-156.194104 169.00262207 -156.19289551 168.11461914 -156.19165039 167.19970703 C-156.08495508 138.29828959 -149.93362332 111.61855871 -135.8203125 86.203125 C-135.26859375 85.16414062 -134.716875 84.12515625 -134.1484375 83.0546875 C-114.55191416 47.50099515 -78.22077968 19.48357848 -39.8203125 7.203125 C-26.80447865 3.52137894 -13.58726211 0.08733548 0 0 Z " fill="#FED56A" transform="translate(636.8203125,469.796875)"/>
<path d="M0 0 C5.62450776 3.18684833 7.98160451 7.16539385 9.6875 13.3125 C9.8828125 16.7421875 9.8828125 16.7421875 9.8125 20.1875 C9.79445313 21.33992187 9.77640625 22.49234375 9.7578125 23.6796875 C9.73460937 24.54851563 9.71140625 25.41734375 9.6875 26.3125 C10.40292969 26.39886719 11.11835937 26.48523438 11.85546875 26.57421875 C29.53145188 29.06669244 45.56188384 36.81855734 57.421875 50.28125 C60.72587423 54.81032759 61.51631745 59.05871936 61.23046875 64.62890625 C60.14033196 70.01684851 57.17309846 73.43767894 52.859375 76.69140625 C47.76437937 79.66348703 42.46754128 80.49375649 36.6875 79.3125 C33.36476721 77.70509251 30.58323836 75.58630142 27.6875 73.3125 C13.00026149 62.18942849 -1.2507447 60.02712785 -19.3125 61.3125 C-26.86757167 62.67132584 -33.25355785 65.41040082 -38.3125 71.3125 C-41.61879731 76.11196384 -42.16441406 80.64628089 -41.3125 86.3125 C-38.49392286 93.5427631 -32.99223727 97.25325874 -25.98168945 100.33813477 C-23.56752192 101.21291369 -21.14246371 101.99744375 -18.6875 102.75 C-17.78725098 103.0394751 -16.88700195 103.3289502 -15.95947266 103.62719727 C-11.1581419 105.15857778 -6.33441491 106.60821658 -1.5 108.03125 C21.85688113 114.91614713 46.92547013 122.52109732 60.328125 144.39453125 C63.9629555 152.19688292 65.21936567 159.55886178 65.125 168.125 C65.11815186 169.08623779 65.11130371 170.04747559 65.10424805 171.0378418 C64.93103982 178.74268862 63.83502051 185.20987148 60.6875 192.3125 C60.336875 193.11429688 59.98625 193.91609375 59.625 194.7421875 C51.60457556 210.83873377 35.80677085 220.88699305 19.3125 226.625 C15.75434769 227.81261548 13.49586083 228.3125 9.6875 228.3125 C9.73390625 229.20710937 9.7803125 230.10171875 9.828125 231.0234375 C10.07998875 239.46087319 9.96615578 247.22859158 4.296875 253.96484375 C0.54835246 257.36810764 -3.40647154 259.2706113 -8.48046875 259.34375 C-15.03507825 258.90458018 -19.06169946 256.75086725 -23.5625 251.875 C-27.13072818 246.65009445 -27.58226836 242.23060763 -27.4375 236 C-27.42847656 235.25943359 -27.41945313 234.51886719 -27.41015625 233.75585938 C-27.38674213 231.94126533 -27.35087615 230.12683929 -27.3125 228.3125 C-28.43527344 228.21066406 -29.55804687 228.10882812 -30.71484375 228.00390625 C-35.66913482 227.37795209 -40.18332487 225.91979448 -44.875 224.25 C-45.74688965 223.93981934 -46.6187793 223.62963867 -47.51708984 223.31005859 C-61.69437177 218.11007769 -76.86267563 211.0659655 -84.53515625 197.27734375 C-86.48865834 192.33959726 -85.85964245 188.0204719 -83.875 183.1875 C-81.16945367 178.38396862 -77.34400025 175.46998211 -72.3125 173.3125 C-66.4910839 172.14281825 -61.49949106 173.01862479 -56.35546875 175.9140625 C-53.98315993 177.53793737 -51.82554421 179.33776719 -49.625 181.1875 C-38.07248763 190.70237599 -23.73023414 194.9075158 -8.9375 194.75 C-7.93452881 194.74242676 -6.93155762 194.73485352 -5.89819336 194.72705078 C5.19030173 194.481377 15.5908006 192.53376401 23.6875 184.3125 C27.71703791 179.02373149 27.45180036 172.69045469 26.6875 166.3125 C22.40411438 156.67488235 11.95982245 152.77300542 2.74542236 149.09259033 C-3.70117669 146.64889776 -10.33948241 144.73662938 -16.9375 142.75 C-26.95752848 139.72365166 -36.74267175 136.60684429 -46.3125 132.3125 C-47.21581055 131.9093457 -48.11912109 131.50619141 -49.04980469 131.09082031 C-61.56963327 125.37112766 -72.48316602 115.48407392 -77.5703125 102.49609375 C-77.81523438 101.77550781 -78.06015625 101.05492187 -78.3125 100.3125 C-78.53679688 99.66410156 -78.76109375 99.01570312 -78.9921875 98.34765625 C-82.95141044 84.21919631 -80.75177742 69.22468576 -73.7734375 56.5078125 C-63.27334711 40.53374134 -48.26774922 31.58748847 -30.3125 26.3125 C-29.6525 26.3125 -28.9925 26.3125 -28.3125 26.3125 C-28.36470703 25.38630859 -28.36470703 25.38630859 -28.41796875 24.44140625 C-28.66080922 16.84396858 -27.70783958 10.16194842 -23.0625 3.9375 C-16.50929266 -2.31783428 -8.20344687 -3.75101846 0 0 Z " fill="#0B3B61" transform="translate(658.3125,508.6875)"/>
<path d="M0 0 C1.95576611 -0.01041829 1.95576611 -0.01041829 3.95104265 -0.02104706 C7.55475677 -0.03962765 11.15805865 -0.03338552 14.76178956 -0.02289402 C18.65417166 -0.01588897 22.54647018 -0.03190976 26.43882751 -0.04489136 C34.05788295 -0.06651421 41.67678892 -0.06640898 49.29586494 -0.05826581 C55.48888902 -0.05196198 61.68186956 -0.05310636 67.87489319 -0.05953789 C68.75683972 -0.06043954 69.63878625 -0.0613412 70.54745844 -0.06227018 C72.33920333 -0.0641214 74.13094821 -0.06598396 75.92269307 -0.06785773 C92.71774145 -0.08443 109.51270577 -0.07572163 126.30774909 -0.05887216 C141.66960967 -0.04417326 157.0312747 -0.05880727 172.3931101 -0.08764232 C188.17291651 -0.11704104 203.95263267 -0.12800737 219.73246527 -0.11846012 C221.51756126 -0.11743758 223.30265727 -0.11644297 225.0877533 -0.11547661 C225.96601887 -0.11500022 226.84428445 -0.11452383 227.74916413 -0.114033 C233.93364609 -0.11186963 240.11804251 -0.12166875 246.30250549 -0.13624763 C253.84095045 -0.15377072 261.37914604 -0.15365392 268.9175812 -0.13089598 C272.76273659 -0.11975388 276.60745263 -0.11659015 280.45258904 -0.13519669 C284.62296974 -0.15511726 288.79228016 -0.1362169 292.96264648 -0.11352539 C294.1750993 -0.12536112 295.38755212 -0.13719685 296.63674593 -0.14939123 C303.71302102 -0.07106124 308.54004335 0.81747627 313.98132324 5.5146637 C318.09052341 9.84013755 320.03737094 13.82637921 320.41882324 19.7646637 C320.27389265 25.19956074 318.28871257 29.25877119 314.98132324 33.5146637 C310.29280431 37.82358701 306.02259324 39.63783358 299.69943714 39.64609146 C298.59764458 39.64993261 297.49585203 39.65377375 296.36067182 39.65773129 C295.14532764 39.65686481 293.92998346 39.65599833 292.67781067 39.65510559 C291.39048937 39.65807671 290.10316808 39.66104784 288.77683705 39.66410899 C285.1961587 39.6721876 281.61550039 39.67396904 278.034814 39.67470646 C274.17577648 39.67655555 270.3167494 39.68410221 266.4577179 39.69084167 C258.01548031 39.70443219 249.57324746 39.71045099 241.13100076 39.71485233 C235.86022799 39.71761385 230.58945706 39.72185107 225.31868553 39.72635651 C210.72764991 39.7385507 196.13661575 39.74884934 181.54557514 39.7522316 C180.1443542 39.75256095 180.1443542 39.75256095 178.71482576 39.75289695 C177.31023238 39.75322437 177.31023238 39.75322437 175.87726337 39.7535584 C173.9797397 39.75400186 172.08221604 39.75444843 170.18469238 39.75489807 C169.2434531 39.7551195 168.30221382 39.75534093 167.33245214 39.75556907 C152.08348939 39.75951645 136.83457444 39.77696798 121.58563016 39.80025759 C105.93256287 39.82397155 90.27951957 39.83643349 74.62643403 39.83759952 C65.83672272 39.83851632 57.04707369 39.84426975 48.25737953 39.86241913 C40.77194368 39.87782079 33.28658933 39.88294024 25.80114064 39.87468103 C21.98243981 39.87077459 18.1639031 39.87170368 14.34522247 39.88573837 C10.20328114 39.90082176 6.06170954 39.89261052 1.91975403 39.88215637 C0.71556346 39.89021278 -0.48862711 39.89826918 -1.72930831 39.90656972 C-8.89631216 39.86420507 -15.05083216 39.45351913 -21.00695801 35.04200745 C-24.89158429 30.37816409 -27.382679 25.62024217 -28.01867676 19.5146637 C-27.26545943 13.75673568 -25.35148385 8.4961621 -21.01867676 4.5146637 C-14.01980746 0.10074973 -8.15177525 -0.05540577 0 0 Z " fill="#044370" transform="translate(307.0186767578125,251.48533630371094)"/>
<path d="M0 0 C0.71562396 -0.00367669 1.43124793 -0.00735338 2.16855747 -0.01114148 C4.57281283 -0.02217757 6.97702497 -0.02602204 9.38130188 -0.02983093 C11.10273374 -0.03609569 12.82416424 -0.0427425 14.54559326 -0.04974365 C20.20476845 -0.07078654 25.86394392 -0.08114682 31.52314758 -0.09111023 C33.47162706 -0.09515782 35.4201064 -0.09927474 37.36858559 -0.10346031 C46.52345541 -0.12251314 55.67831717 -0.13674351 64.83320302 -0.14507228 C75.39845222 -0.15484293 85.96349181 -0.1811576 96.52866715 -0.22157317 C104.69609049 -0.25174342 112.86345379 -0.26654206 121.03093177 -0.26985329 C125.90831633 -0.27220292 130.78547699 -0.28115184 135.66280174 -0.30631447 C140.2535747 -0.3296158 144.84397667 -0.33382014 149.43479347 -0.32355309 C151.11657064 -0.3230581 152.79836619 -0.32936752 154.48008728 -0.34310913 C172.26694565 -0.48027558 172.26694565 -0.48027558 179.07002258 6.15498352 C182.64414353 11.6427273 184.75408735 16.50393795 184.01142883 23.14717102 C182.01051478 30.16592136 178.65830276 33.92577131 172.62757874 37.84321594 C168.11739409 40.09120569 163.8200938 39.9961482 158.85908508 39.95185852 C157.17843712 39.97262199 157.17843712 39.97262199 155.46383667 39.99380493 C151.66681021 40.03248044 147.87113084 40.02764925 144.07392883 40.02217102 C141.34716281 40.03560688 138.62047194 40.0573413 135.89375305 40.07807922 C129.63719652 40.11994638 123.38090982 40.13496962 117.1242218 40.13691711 C109.00854366 40.13949576 100.89313922 40.16430803 92.77754211 40.20039368 C79.60086336 40.25845977 66.42420752 40.29777121 53.24743271 40.32616425 C49.63971525 40.33466328 46.032011 40.34558575 42.42430115 40.35682678 C36.67394966 40.37358635 30.92368171 40.37921814 25.17330742 40.37674522 C23.0323493 40.37733491 20.89138902 40.38132545 18.75044441 40.38895607 C15.78738583 40.39881166 12.82459001 40.39598936 9.86152649 40.39009094 C9.00671723 40.39571486 8.15190798 40.40133877 7.27119541 40.4071331 C-1.61609002 40.36123449 -10.40344142 39.66243202 -16.98857117 33.14717102 C-21.312241 27.82573123 -21.66403638 23.09862741 -21.43778992 16.31123352 C-20.546705 10.0348963 -17.7685164 6.5355283 -12.86357117 2.70967102 C-8.34329373 0.2529985 -5.09505091 0.01694802 0 0 Z " fill="#044573" transform="translate(300.9885711669922,348.8528289794922)"/>
<path d="M0 0 C4.19637982 5.69000654 5.27048087 10.61843962 4.5 17.625 C2.49662251 23.95145522 -0.62135289 27.65909466 -6.0625 31.375 C-10.5154786 33.65857877 -14.35623132 33.75340298 -19.34307861 33.76544189 C-20.03097214 33.76841302 -20.71886566 33.77138414 -21.42760444 33.7744453 C-23.73202208 33.78311499 -26.03638766 33.78463908 -28.34082031 33.78613281 C-29.99343476 33.79076223 -31.64604814 33.79578706 -33.29866028 33.80117798 C-37.78848639 33.81429256 -42.27829756 33.82074517 -46.76813984 33.82518864 C-49.57434858 33.82812105 -52.38055326 33.8322262 -55.18675995 33.83669281 C-63.97000937 33.85036564 -72.75324947 33.86003319 -81.5365088 33.8638947 C-91.66929827 33.86837421 -101.80195277 33.88591803 -111.9347012 33.9148953 C-119.77093826 33.93652574 -127.60713737 33.94659972 -135.44340396 33.94793582 C-140.12175865 33.94898293 -144.79998642 33.95487059 -149.47830963 33.97275543 C-153.88109648 33.98925954 -158.28366132 33.99138028 -162.68646812 33.98261642 C-164.29889967 33.98184729 -165.91134326 33.9861725 -167.52374458 33.99607468 C-185.16625782 34.09803381 -185.16625782 34.09803381 -191.7421875 28.828125 C-196.37259494 23.28936012 -198.55528231 19.10778547 -198.4375 11.6875 C-197.38708145 5.52822759 -194.36057118 0.80439485 -189.41293335 -2.953125 C-182.94219057 -6.88942347 -175.37278004 -6.10263607 -168.05322266 -6.08203125 C-166.38354223 -6.09540922 -164.71387776 -6.11092327 -163.04423523 -6.12840271 C-158.52550216 -6.16927338 -154.00718659 -6.17922495 -149.48828936 -6.18269348 C-144.74831667 -6.19076039 -140.00851944 -6.22461375 -135.26864624 -6.25488281 C-127.30800421 -6.30177882 -119.34748098 -6.3291278 -111.38671875 -6.34423828 C-102.20022753 -6.36185824 -93.01421559 -6.407609 -83.82792056 -6.46913052 C-74.97211848 -6.52800869 -66.11632248 -6.56944667 -57.26038742 -6.60214233 C-53.50063799 -6.61617098 -49.74097948 -6.63576401 -45.98128128 -6.65982056 C-41.54726999 -6.68721521 -37.11346987 -6.69911941 -32.6793766 -6.6993885 C-31.05809596 -6.70183732 -29.43681323 -6.70936747 -27.81558418 -6.72253227 C-6.38708185 -6.88785191 -6.38708185 -6.88785191 0 0 Z " fill="#044370" transform="translate(477.5,452.375)"/>
<path d="M0 0 C0.33 0.99 0.66 1.98 1 3 C-5.38865914 6.80862372 -9.33829226 8.1258618 -16.89691162 8.12025452 C-17.59044967 8.12110894 -18.28398772 8.12196337 -18.99854207 8.12284368 C-21.3216455 8.12449034 -23.64467666 8.11899043 -25.96777344 8.11352539 C-27.63336689 8.11324332 -29.29896046 8.11340165 -30.96455383 8.1139679 C-35.48691089 8.11425508 -40.00924147 8.108371 -44.53159237 8.10139394 C-49.25749007 8.09514737 -53.98338836 8.09455557 -58.70928955 8.09336853 C-67.65877713 8.09025907 -76.60825252 8.08205085 -85.55773473 8.07201904 C-95.74626559 8.06084598 -105.93479704 8.05534444 -116.1233325 8.05032361 C-137.08222848 8.03986793 -158.04111347 8.02227591 -179 8 C-179 7.34 -179 6.68 -179 6 C-179.99 5.67 -180.98 5.34 -182 5 C-180.64771081 4.99780016 -180.64771081 4.99780016 -179.26810265 4.99555588 C-157.33471556 4.95850861 -135.40148326 4.89952147 -113.46822166 4.81609726 C-102.86146159 4.77628334 -92.25477596 4.74390279 -81.64794922 4.72900391 C-72.40332457 4.7159996 -63.15886357 4.68906615 -53.91433108 4.64538693 C-49.01912663 4.62274468 -44.12412423 4.60709098 -39.22886276 4.60811615 C-34.62082097 4.60886113 -30.01322627 4.59097568 -25.40530014 4.55883217 C-23.71465595 4.5503169 -22.02396171 4.54859428 -20.33330536 4.55419731 C-18.02273713 4.56083453 -15.71359262 4.54292545 -13.40316772 4.51898193 C-11.46463708 4.51345118 -11.46463708 4.51345118 -9.4869442 4.50780869 C-5.22822789 3.88760572 -3.35827489 2.60419118 0 0 Z " fill="#10476D" transform="translate(475,478)"/>
<path d="M0 0 C55.77 0 111.54 0 169 0 C169.33 0.66 169.66 1.32 170 2 C133.50727709 2.94356098 97.01614632 3.13724722 60.51277924 3.18167114 C56.87148205 3.18750564 53.23021386 3.1972197 49.58892822 3.20800781 C43.7772364 3.22466879 37.9656224 3.23089802 32.15390778 3.22919655 C29.98082338 3.23003769 27.80773745 3.23421139 25.63466644 3.24188805 C22.6298934 3.25168988 19.6253829 3.24888818 16.62060547 3.24291992 C15.74403353 3.24854195 14.86746159 3.25416397 13.96432686 3.25995636 C8.92607511 3.23413881 4.77699083 2.62294976 0 1 C0 0.67 0 0.34 0 0 Z " fill="#041C40" transform="translate(294,386)"/>
<path d="M0 0 C5.94 0 11.88 0 18 0 C18 0.66 18 1.32 18 2 C64.86 2 111.72 2 160 2 C160 2.33 160 2.66 160 3 C93.34 3 26.68 3 -42 3 C-42 2.67 -42 2.34 -42 2 C-28.14 2 -14.28 2 0 2 C0 1.34 0 0.68 0 0 Z " fill="#03325B" transform="translate(508,146)"/>
<path d="M0 0 C12.70163821 0.74049081 25.40652385 0.9846234 38.12580872 1.21897888 C40.35172576 1.26231245 42.57763729 1.3059306 44.80354309 1.34983826 C50.18173929 1.45532115 55.55999211 1.55733516 60.93830872 1.65647888 C60.93830872 1.98647888 60.93830872 2.31647888 60.93830872 2.65647888 C29.25830872 2.65647888 -2.42169128 2.65647888 -35.06169128 2.65647888 C-35.06169128 2.32647888 -35.06169128 1.99647888 -35.06169128 1.65647888 C-23.22894764 -0.04476282 -11.97229983 -0.7069371 0 0 Z " fill="#042D54" transform="translate(395.0616912841797,146.34352111816406)"/>
<path d="M0 0 C5.25724203 0.61975996 10.53995017 0.9761352 15.81689453 1.38720703 C17.54456055 1.52352539 17.54456055 1.52352539 19.30712891 1.66259766 C22.1227862 1.88457894 24.93853938 2.10525241 27.75439453 2.32470703 C27.75439453 2.65470703 27.75439453 2.98470703 27.75439453 3.32470703 C6.96439453 3.32470703 -13.82560547 3.32470703 -35.24560547 3.32470703 C-35.24560547 2.66470703 -35.24560547 2.00470703 -35.24560547 1.32470703 C-32.59491854 -0.00063643 -30.6159701 0.2286299 -27.65185547 0.26220703 C-25.98316406 0.27380859 -25.98316406 0.27380859 -24.28076172 0.28564453 C-21.92399089 0.3116862 -19.56722005 0.33772786 -17.21044922 0.36376953 C-15.54175781 0.37537109 -15.54175781 0.37537109 -13.83935547 0.38720703 C-12.30311523 0.40460938 -12.30311523 0.40460938 -10.73583984 0.42236328 C-6.87711073 0.27104057 -4.10187833 -0.51201567 0 0 Z " fill="#073158" transform="translate(280.24560546875,145.67529296875)"/>
<path d="M0 0 C0.33 0 0.66 0 1 0 C1 16.83 1 33.66 1 51 C-2.33885821 46.54818905 -2.4272586 44.12802121 -2.36328125 38.8671875 C-2.36377975 38.07531036 -2.36427826 37.28343323 -2.36479187 36.46755981 C-2.36245397 34.79149875 -2.35274208 33.11543401 -2.33618164 31.43945312 C-2.31277352 28.9046188 -2.3156 26.37085118 -2.32226562 23.8359375 C-2.30679939 15.64004651 -2.05045717 7.98943072 0 0 Z " fill="#0C436F" transform="translate(685,240)"/>
<path d="M0 0 C0 0.66 0 1.32 0 2 C0.99 1.67 1.98 1.34 3 1 C5.55013318 0.95415491 8.07661187 0.95531193 10.625 1 C15.0304997 1.0475396 19.31809875 1.08270131 23.6875 0.4375 C29.41425901 -0.33938591 35.31179112 0.06148634 41 1 C41.99 1.99 41.99 1.99 43 3 C36.47535053 3.02570756 29.95071447 3.04301396 23.42602539 3.05493164 C21.21410636 3.05990874 19.00219054 3.06669282 16.7902832 3.07543945 C3.81956104 3.12538334 -9.06318829 2.9872625 -22 2 C-22 1.67 -22 1.34 -22 1 C-19.45847098 0.83096719 -16.91681012 0.66470573 -14.375 0.5 C-13.30572266 0.42845703 -13.30572266 0.42845703 -12.21484375 0.35546875 C-8.13492439 0.09345558 -4.09108781 -0.05162256 0 0 Z " fill="#124770" transform="translate(413,145)"/>
<path d="M0 0 C27.39 0 54.78 0 83 0 C83 0.33 83 0.66 83 1 C58.91 1 34.82 1 10 1 C10 1.66 10 2.32 10 3 C6.7 2.34 3.4 1.68 0 1 C0 0.67 0 0.34 0 0 Z " fill="#01224B" transform="translate(294,386)"/>
<path d="M0 0 C0.77472656 0.00451172 1.54945313 0.00902344 2.34765625 0.01367188 C4.23180524 0.02530242 6.11591365 0.04323094 8 0.0625 C8 1.0525 8 2.0425 8 3.0625 C-1.24 3.3925 -10.48 3.7225 -20 4.0625 C-14.77983605 -1.15766395 -7.04576912 -0.07937175 0 0 Z " fill="#0B385F" transform="translate(235,145.9375)"/>
<path d="M0 0 C3.96 0 7.92 0 12 0 C11.67 0.66 11.34 1.32 11 2 C19.25 2.33 27.5 2.66 36 3 C36 3.33 36 3.66 36 4 C31.78654351 4.02503196 27.57312835 4.04301426 23.35961914 4.05493164 C21.93122604 4.05990862 20.50283788 4.06669262 19.07446289 4.07543945 C10.66631141 4.12557575 2.36460055 3.98596687 -6 3 C-6 2.67 -6 2.34 -6 2 C-4.02 1.67 -2.04 1.34 0 1 C0 0.67 0 0.34 0 0 Z " fill="#1D5E86" transform="translate(629,842)"/>
<path d="M0 0 C3 1 3 1 4.25854492 2.96191406 C4.66177979 3.80463867 5.06501465 4.64736328 5.48046875 5.515625 C5.92197266 6.43730469 6.36347656 7.35898437 6.81835938 8.30859375 C7.27017578 9.27925781 7.72199219 10.24992188 8.1875 11.25 C8.65091797 12.20519531 9.11433594 13.16039062 9.59179688 14.14453125 C13.29818908 21.99400399 13.29818908 21.99400399 13 27 C10.49113101 23.94730103 9.05586134 20.98568432 7.625 17.3125 C5.70821245 12.55257469 3.54088981 8.14869489 0.91796875 3.7421875 C0 2 0 2 0 0 Z " fill="#0C3154" transform="translate(830,537)"/>
<path d="M0 0 C-3.76096104 2.34260788 -7.53061484 4.66974279 -11.31542969 6.97363281 C-12.78854827 7.87116767 -14.25788006 8.77491179 -15.7265625 9.6796875 C-16.49742187 10.13601563 -17.26828125 10.59234375 -18.0625 11.0625 C-18.73410156 11.46597656 -19.40570312 11.86945312 -20.09765625 12.28515625 C-22.44956772 13.16893407 -23.6696154 12.82523642 -26 12 C-22.01119517 9.64709244 -18.00889209 7.31850671 -14 5 C-12.96359375 4.39414062 -11.9271875 3.78828125 -10.859375 3.1640625 C-9.89515625 2.61492188 -8.9309375 2.06578125 -7.9375 1.5 C-7.05964844 0.9946875 -6.18179688 0.489375 -5.27734375 -0.03125 C-3 -1 -3 -1 0 0 Z " fill="#103A5D" transform="translate(766,811)"/>
<path d="M0 0 C8.20294123 1.12939046 15.62743462 6.88639112 21 13 C17.76216222 13 17.107774 12.65348566 14.53125 10.91796875 C13.87769531 10.48033203 13.22414063 10.04269531 12.55078125 9.59179688 C11.87402344 9.12837891 11.19726562 8.66496094 10.5 8.1875 C9.82324219 7.73568359 9.14648438 7.28386719 8.44921875 6.81835938 C5.35505085 4.72811775 2.5863979 2.71089537 0 0 Z " fill="#0C3459" transform="translate(755,461)"/>
<path d="M0 0 C0.33 0 0.66 0 1 0 C1.33 4.29 1.66 8.58 2 13 C2.33 13 2.66 13 3 13 C3 17.95 3 22.9 3 28 C2.34 28 1.68 28 1 28 C0.11504503 18.62895894 -0.1170409 9.40228594 0 0 Z " fill="#124E7A" transform="translate(683,361)"/>
<path d="M0 0 C6.54262806 1.13658127 11.28367939 6.73888627 15 11.9375 C15.66 12.948125 16.32 13.95875 17 15 C14 15 14 15 12.421875 13.4609375 C11.87015625 12.77257812 11.3184375 12.08421875 10.75 11.375 C8.35031845 8.49435882 5.94313699 5.96400468 3.0625 3.5625 C2.051875 2.716875 1.04125 1.87125 0 1 C0 0.67 0 0.34 0 0 Z " fill="#0C375C" transform="translate(789,486)"/>
<path d="M0 0 C1.03125 0.00322266 2.0625 0.00644531 3.125 0.00976562 C4.74535156 0.02233398 4.74535156 0.02233398 6.3984375 0.03515625 C8.03039062 0.04192383 8.03039062 0.04192383 9.6953125 0.04882812 C12.38807539 0.06063849 15.08072938 0.07710847 17.7734375 0.09765625 C14.224824 2.46339859 13.196985 2.2063089 9.0859375 1.72265625 C7.59513672 1.55636719 7.59513672 1.55636719 6.07421875 1.38671875 C5.31496094 1.29132813 4.55570312 1.1959375 3.7734375 1.09765625 C3.7734375 1.75765625 3.7734375 2.41765625 3.7734375 3.09765625 C0.4734375 3.09765625 -2.8265625 3.09765625 -6.2265625 3.09765625 C-6.5565625 2.43765625 -6.8865625 1.77765625 -7.2265625 1.09765625 C-4.66933021 -0.1809599 -2.85919148 -0.01570984 0 0 Z " fill="#0E436C" transform="translate(316.2265625,145.90234375)"/>
<path d="M0 0 C0 0.33 0 0.66 0 1 C-10.41303106 2.41193641 -20.47329223 3.30028643 -31 3 C-31 2.67 -31 2.34 -31 2 C-20.55092369 0.14533035 -10.57699095 -0.23049133 0 0 Z " fill="#164F76" transform="translate(644,431)"/>
<path d="M0 0 C0.66 0 1.32 0 2 0 C2 6.6 2 13.2 2 20 C1.34 20.33 0.68 20.66 0 21 C-1.33257403 6.21867882 -1.33257403 6.21867882 0 0 Z " fill="#032D56" transform="translate(684,327)"/>
<path d="M0 0 C2.01847239 3.02770858 2.53945437 4.94219551 3.3125 8.4375 C4.53544337 13.1670463 5.65622066 15.43828398 10 18 C10.66 18.66 11.32 19.32 12 20 C9.16157499 19.91651691 7.45950686 19.4276272 5.3671875 17.48046875 C1.59692669 13.15468642 -0.14750802 10.17805348 -0.0625 4.3125 C-0.05347656 3.50425781 -0.04445313 2.69601562 -0.03515625 1.86328125 C-0.02355469 1.24839844 -0.01195312 0.63351562 0 0 Z " fill="#F0E270" transform="translate(616,586)"/>
<path d="M0 0 C0.33 0 0.66 0 1 0 C1.04939662 3.95096978 1.08571755 7.9018203 1.10986328 11.85302734 C1.12488107 13.8591136 1.15028981 15.86511324 1.17578125 17.87109375 C1.18222656 19.12792969 1.18867187 20.38476562 1.1953125 21.6796875 C1.20578613 22.84226074 1.21625977 24.00483398 1.22705078 25.20263672 C1 28 1 28 -1 30 C-1.19532961 28.2300132 -1.38098882 26.45895721 -1.5625 24.6875 C-1.66691406 23.70136719 -1.77132812 22.71523438 -1.87890625 21.69921875 C-2 19 -2 19 -1 16 C-0.77202438 13.26710707 -0.58331813 10.54957796 -0.4375 7.8125 C-0.39431641 7.06291016 -0.35113281 6.31332031 -0.30664062 5.54101562 C-0.20077315 3.69421625 -0.0999024 1.84713166 0 0 Z " fill="#012750" transform="translate(685,295)"/>
<path d="M0 0 C0.33 0 0.66 0 1 0 C1.18451025 16.8929385 1.18451025 16.8929385 0 24 C-0.66 24 -1.32 24 -2 24 C-2 19.05 -2 14.1 -2 9 C-1.67 9 -1.34 9 -1 9 C-0.67 6.03 -0.34 3.06 0 0 Z " fill="#104E7C" transform="translate(685,224)"/>
<path d="M0 0 C3.00617269 3.00617269 2.59585316 5.82381598 3 10 C2.67 10 2.34 10 2 10 C1.67 13.96 1.34 17.92 1 22 C0.34 21.67 -0.32 21.34 -1 21 C-1.02888146 17.68751813 -1.04675799 14.37506833 -1.0625 11.0625 C-1.07087891 10.11697266 -1.07925781 9.17144531 -1.08789062 8.19726562 C-1.09111328 7.29814453 -1.09433594 6.39902344 -1.09765625 5.47265625 C-1.10289307 4.64000244 -1.10812988 3.80734863 -1.11352539 2.94946289 C-1 1 -1 1 0 0 Z " fill="#0C4772" transform="translate(684,289)"/>
<path d="M0 0 C3.78010855 1.49192754 5.49429699 3.58559193 7.8125 6.875 C8.43769531 7.73867188 9.06289063 8.60234375 9.70703125 9.4921875 C11.2002968 12.38849107 10.9363783 13.02830761 10 16 C8.32756577 13.71234889 6.66193073 11.42026108 5 9.125 C4.52304687 8.47402344 4.04609375 7.82304688 3.5546875 7.15234375 C0 2.2265625 0 2.2265625 0 0 Z " fill="#0B3154" transform="translate(815,514)"/>
<path d="M0 0 C2.35953094 2.35953094 2.49141413 3.77895617 3 7 C3.66 6.34 4.32 5.68 5 5 C4.91214662 6.41777182 4.80395353 7.83429039 4.6875 9.25 C4.62949219 10.03890625 4.57148438 10.8278125 4.51171875 11.640625 C4 14 4 14 1 18 C0.67 12.06 0.34 6.12 0 0 Z " fill="#115480" transform="translate(480,361)"/>
<path d="M0 0 C0.66 0 1.32 0 2 0 C2.86091118 1.37745789 3.72171273 2.75498438 4.58203125 4.1328125 C7.48497279 7.95541871 11.34295584 10.92120642 15 14 C14.01 14.495 14.01 14.495 13 15 C7.45980708 11.45427653 3.42029183 7.67542931 0 2 C0 1.34 0 0.68 0 0 Z " fill="#ECE06F" transform="translate(573,706)"/>
<path d="M0 0 C0 0.33 0 0.66 0 1 C-2.413762 1.69951063 -4.83010234 2.38483919 -7.25 3.0625 C-8.27287109 3.36124023 -8.27287109 3.36124023 -9.31640625 3.66601562 C-15.58342161 5.40009269 -15.58342161 5.40009269 -19 4 C-18.01 4 -17.02 4 -16 4 C-16 3.34 -16 2.68 -16 2 C-10.51324804 0.13216954 -5.77807024 -0.2358396 0 0 Z " fill="#0B3154" transform="translate(608,436)"/>
<path d="M0 0 C3.71905926 2.47937284 3.96900369 3.71739996 5 8 C5.15015097 10.69303025 5.09314985 13.29865447 5 16 C2.57395248 13.57395248 2.24156481 11.85807224 1.375 8.5625 C1.11460937 7.59441406 0.85421875 6.62632812 0.5859375 5.62890625 C0 3 0 3 0 0 Z " fill="#0D3356" transform="translate(845,570)"/>
<path d="M0 0 C0.53109375 0.42152344 1.0621875 0.84304688 1.609375 1.27734375 C2.31578125 1.82519531 3.0221875 2.37304688 3.75 2.9375 C4.44609375 3.48277344 5.1421875 4.02804687 5.859375 4.58984375 C7.96092128 5.97425654 9.54321799 6.56286987 12 7 C12 7.66 12 8.32 12 9 C6.38241014 8.59874358 3.87417866 6.87417866 0 3 C0 2.01 0 1.02 0 0 Z " fill="#0C3C64" transform="translate(284,281)"/>
<path d="M0 0 C1.32 0 2.64 0 4 0 C4 0.66 4 1.32 4 2 C6.97 2.99 9.94 3.98 13 5 C13 5.66 13 6.32 13 7 C11.58208592 6.54554036 10.16571954 6.08625056 8.75 5.625 C7.96109375 5.36976563 7.1721875 5.11453125 6.359375 4.8515625 C4.13372042 4.04826333 2.09068328 3.10288338 0 2 C0 1.34 0 0.68 0 0 Z " fill="#0D355A" transform="translate(558,823)"/>
<path d="M0 0 C1.06528748 2.73019786 1.07998186 3.79298812 0.00390625 6.578125 C-0.47175781 7.45984375 -0.94742188 8.3415625 -1.4375 9.25 C-1.91058594 10.14203125 -2.38367188 11.0340625 -2.87109375 11.953125 C-3.24363281 12.62859375 -3.61617187 13.3040625 -4 14 C-4.66 14 -5.32 14 -6 14 C-4.50829734 9.0276578 -2.39542583 4.58154261 0 0 Z " fill="#0D3356" transform="translate(840,718)"/>
<path d="M0 0 C0.99 0.33 1.98 0.66 3 1 C-0.96 6.94 -0.96 6.94 -5 13 C-6 9 -6 9 -4.78515625 6.640625 C-4.21667969 5.85171875 -3.64820313 5.0628125 -3.0625 4.25 C-2.49660156 3.45078125 -1.93070312 2.6515625 -1.34765625 1.828125 C-0.90292969 1.22484375 -0.45820313 0.6215625 0 0 Z " fill="#0B3255" transform="translate(480,517)"/>
<path d="M0 0 C4.59306496 1.4859916 7.43569245 3.85014682 11 7 C10.67 7.99 10.34 8.98 10 10 C8.32756598 8.71580959 6.66218553 7.42242815 5 6.125 C3.6078125 5.04605469 3.6078125 5.04605469 2.1875 3.9453125 C1.465625 3.30335938 0.74375 2.66140625 0 2 C0 1.34 0 0.68 0 0 Z " fill="#0C3658" transform="translate(777,475)"/>
<path d="M0 0 C1.32 0.33 2.64 0.66 4 1 C0.7 3.31 -2.6 5.62 -6 8 C-6.66 7.67 -7.32 7.34 -8 7 C-5.42215154 4.35247996 -3.08351902 2.05567935 0 0 Z " fill="#0C3558" transform="translate(540,461)"/>
<path d="M0 0 C0.33 0 0.66 0 1 0 C1.24887295 2.10192697 1.4734719 4.20673964 1.6875 6.3125 C1.81511719 7.48425781 1.94273437 8.65601563 2.07421875 9.86328125 C2 13 2 13 0.51953125 14.91796875 C0.01808594 15.27503906 -0.48335937 15.63210938 -1 16 C-1.02712153 14.083412 -1.04645097 12.1667127 -1.0625 10.25 C-1.07410156 9.18265625 -1.08570313 8.1153125 -1.09765625 7.015625 C-1.01510087 4.46631499 -0.74617558 2.42066409 0 0 Z " fill="#104770" transform="translate(684,400)"/>
<path d="M0 0 C5.61 0 11.22 0 17 0 C17 0.33 17 0.66 17 1 C14.69 1 12.38 1 10 1 C10 1.66 10 2.32 10 3 C6.7 2.34 3.4 1.68 0 1 C0 0.67 0 0.34 0 0 Z " fill="#08315A" transform="translate(294,386)"/>
<path d="M0 0 C0.8971875 0.309375 0.8971875 0.309375 1.8125 0.625 C-1.20637244 4.10831435 -3.75659529 5.41657144 -8.1875 6.625 C-4.13461538 -0.70879121 -4.13461538 -0.70879121 0 0 Z " fill="#07345B" transform="translate(209.1875,151.375)"/>
<path d="M0 0 C2.52631142 3.12781414 4.42373366 6.29577411 6 10 C5.67 10.99 5.34 11.98 5 13 C2.37613513 9.93882432 2 9.26826873 2 5 C1.34 5 0.68 5 0 5 C0 3.35 0 1.7 0 0 Z " fill="#0E3558" transform="translate(189,777)"/>
<path d="M0 0 C-1.13271712 3.39815137 -2.1909314 4.28644916 -4.875 6.5625 C-5.92300781 7.46162109 -5.92300781 7.46162109 -6.9921875 8.37890625 C-9 10 -9 10 -12 12 C-10.53033642 8.60140297 -8.61962486 6.35036291 -6 3.75 C-5.29875 3.04359375 -4.5975 2.3371875 -3.875 1.609375 C-2 0 -2 0 0 0 Z " fill="#F8ED73" transform="translate(536,514)"/>
<path d="M0 0 C0.59296875 0.34804688 1.1859375 0.69609375 1.796875 1.0546875 C0.3850967 1.58862929 -1.03282744 2.10633854 -2.453125 2.6171875 C-3.24203125 2.90722656 -4.0309375 3.19726562 -4.84375 3.49609375 C-7.39415952 4.09991587 -8.75634729 3.9020807 -11.203125 3.0546875 C-10.213125 3.0546875 -9.223125 3.0546875 -8.203125 3.0546875 C-8.203125 2.3946875 -8.203125 1.7346875 -8.203125 1.0546875 C-2.74543269 -1.17800481 -2.74543269 -1.17800481 0 0 Z " fill="#16476C" transform="translate(717.203125,833.9453125)"/>
<path d="M0 0 C0.33 0 0.66 0 1 0 C2.39805825 7.9223301 2.39805825 7.9223301 1 12 C0.01 12.66 -0.98 13.32 -2 14 C-1.03644647 4.58997722 -1.03644647 4.58997722 0 0 Z " fill="#164B73" transform="translate(446,592)"/>
<path d="M0 0 C0.99 0.33 1.98 0.66 3 1 C2.04578192 2.14926266 1.08647955 3.29430541 0.125 4.4375 C-0.40867187 5.07558594 -0.94234375 5.71367187 -1.4921875 6.37109375 C-3 8 -3 8 -5 9 C-4.42647107 5.12867972 -2.51295648 2.91827204 0 0 Z " fill="#0A3358" transform="translate(489,506)"/>
<path d="M0 0 C0.99 0.33 1.98 0.66 3 1 C0.03 3.64 -2.94 6.28 -6 9 C-6 6 -6 6 -4.6875 4.39453125 C-4.130625 3.87246094 -3.57375 3.35039062 -3 2.8125 C-2.443125 2.28269531 -1.88625 1.75289063 -1.3125 1.20703125 C-0.6628125 0.60955078 -0.6628125 0.60955078 0 0 Z " fill="#072C4F" transform="translate(508,486)"/>
<path d="M0 0 C7.92 0 15.84 0 24 0 C24 0.33 24 0.66 24 1 C16.08 1 8.16 1 0 1 C0 0.67 0 0.34 0 0 Z " fill="#2687BB" transform="translate(318,487)"/>
<path d="M0 0 C3 3 3 3 3.375 5.9375 C3 9 3 9 0 13 C0 8.71 0 4.42 0 0 Z " fill="#0D507E" transform="translate(280,362)"/>
<path d="M0 0 C0.33 0.99 0.66 1.98 1 3 C-0.21484375 5.04296875 -0.21484375 5.04296875 -1.9375 7.1875 C-2.50339844 7.90292969 -3.06929687 8.61835937 -3.65234375 9.35546875 C-4.09707031 9.89816406 -4.54179688 10.44085937 -5 11 C-5.33 10.34 -5.66 9.68 -6 9 C-4.02 6.03 -2.04 3.06 0 0 Z " fill="#0D3052" transform="translate(822,751)"/>
<path d="M0 0 C0.66 0 1.32 0 2 0 C5 5.75 5 5.75 5 8 C3.35 7.67 1.7 7.34 0 7 C0 4.69 0 2.38 0 0 Z " fill="#0F3B5E" transform="translate(467,735)"/>
<path d="M0 0 C3.35810395 1.38956025 5.18586552 2.82526467 7 6 C7.1875 8.75 7.1875 8.75 7 11 C5 9 5 9 3.5 5.9375 C2.32219888 2.91393318 2.32219888 2.91393318 0 2 C0 1.34 0 0.68 0 0 Z " fill="#09325A" transform="translate(618,256)"/>
<path d="M0 0 C3.96 0.33 7.92 0.66 12 1 C12 1.33 12 1.66 12 2 C11.0925 2.144375 10.185 2.28875 9.25 2.4375 C6.14786241 2.90035441 6.14786241 2.90035441 3.8125 3.6875 C2 4 2 4 -1 2 C-0.67 1.34 -0.34 0.68 0 0 Z " fill="#0E4771" transform="translate(679,146)"/>
<path d="M0 0 C1.07310858 3.27185553 0.89263102 5.42947592 0.0625 8.75 C-0.22947266 9.94882812 -0.22947266 9.94882812 -0.52734375 11.171875 C-0.68332031 11.77515625 -0.83929687 12.3784375 -1 13 C-3.13181214 9.25712373 -2.95685425 7.21015871 -2 3 C-1.34 3 -0.68 3 0 3 C0 2.01 0 1.02 0 0 Z " fill="#164A6F" transform="translate(854,674)"/>
<path d="M0 0 C0.33 0 0.66 0 1 0 C1.33 3.63 1.66 7.26 2 11 C-0.0625 9.25 -0.0625 9.25 -2 7 C-1.8125 4.9375 -1.8125 4.9375 -1 3 C-0.67 2.01 -0.34 1.02 0 0 Z " fill="#165077" transform="translate(854,598)"/>
<path d="M0 0 C2.62370236 3.00245204 3.36302348 4.77146788 3.1875 8.75 C3.16042969 9.54921875 3.13335938 10.3484375 3.10546875 11.171875 C3.07066406 11.77515625 3.03585937 12.3784375 3 13 C0.89172945 9.83759418 0.66182535 8.49342531 0.375 4.8125 C0.30023437 3.91144531 0.22546875 3.01039063 0.1484375 2.08203125 C0.09945312 1.39496094 0.05046875 0.70789063 0 0 Z " fill="#07294B" transform="translate(851,590)"/>
<path d="M0 0 C0.33 0 0.66 0 1 0 C1 6.93 1 13.86 1 21 C0.67 21 0.34 21 0 21 C0 14.07 0 7.14 0 0 Z " fill="#155681" transform="translate(184,519)"/>
<path d="M0 0 C4.24822374 0.47202486 6.19989709 2.96655518 9 6 C8.67 6.66 8.34 7.32 8 8 C6.66372225 6.85760183 5.33104612 5.71098945 4 4.5625 C3.2575 3.92441406 2.515 3.28632813 1.75 2.62890625 C1.1725 2.09136719 0.595 1.55382812 0 1 C0 0.67 0 0.34 0 0 Z " fill="#072B4F" transform="translate(789,486)"/>
<path d="M0 0 C6.93 0 13.86 0 21 0 C21 0.33 21 0.66 21 1 C14.07 1 7.14 1 0 1 C0 0.67 0 0.34 0 0 Z " fill="#2685BA" transform="translate(296,487)"/>
<path d="M0 0 C0.66 0 1.32 0 2 0 C1.71872579 1.48117801 1.42466268 2.95993249 1.125 4.4375 C0.96257812 5.26121094 0.80015625 6.08492188 0.6328125 6.93359375 C0.31957031 7.95646484 0.31957031 7.95646484 0 9 C-0.99 9.495 -0.99 9.495 -2 10 C-2.17942163 6.05272412 -2.09350689 3.4019487 0 0 Z " fill="#0A3960" transform="translate(282,456)"/>
<path d="M0 0 C3.6875 0.3125 3.6875 0.3125 7 1 C7 1.66 7 2.32 7 3 C3.7 3 0.4 3 -3 3 C-2.01 2.01 -1.02 1.02 0 0 Z " fill="#042B50" transform="translate(257,146)"/>
<path d="M0 0 C2.97 0.33 5.94 0.66 9 1 C9 1.33 9 1.66 9 2 C4.23692563 2.95261487 -0.1666528 3.08333357 -5 3 C-5 2.67 -5 2.34 -5 2 C-3.35 2 -1.7 2 0 2 C0 1.34 0 0.68 0 0 Z " fill="#1F5A81" transform="translate(674,842)"/>
<path d="M0 0 C0.99 0.33 1.98 0.66 3 1 C0.03 3.475 0.03 3.475 -3 6 C-3.66 5.67 -4.32 5.34 -5 5 C-3.35 3.35 -1.7 1.7 0 0 Z " fill="#083053" transform="translate(525,472)"/>
<path d="M0 0 C0 0.66 0 1.32 0 2 C-2.97 2.66 -5.94 3.32 -9 4 C-9 3.34 -9 2.68 -9 2 C-5.62902617 0.50178941 -3.79557881 0 0 0 Z " fill="#0A3154" transform="translate(576,445)"/>
<path d="M0 0 C0.33 0 0.66 0 1 0 C1 6.27 1 12.54 1 19 C0.67 19 0.34 19 0 19 C0 12.73 0 6.46 0 0 Z " fill="#145885" transform="translate(184,429)"/>
<path d="M0 0 C0.99 0.33 1.98 0.66 3 1 C2.1875 3.4375 2.1875 3.4375 1 6 C0.01 6.33 -0.98 6.66 -2 7 C-1.125 2.25 -1.125 2.25 0 0 Z " fill="#0B3B65" transform="translate(284,258)"/>
<path d="M0 0 C2.64 0.33 5.28 0.66 8 1 C6 3 6 3 2.875 3.125 C1.451875 3.063125 1.451875 3.063125 0 3 C0 2.01 0 1.02 0 0 Z " fill="#083055" transform="translate(672,146)"/>
<path d="M0 0 C0.33 0.99 0.66 1.98 1 3 C-2.80504787 4.79682816 -3.70600835 5.07349791 -8 4 C-5.36 2.68 -2.72 1.36 0 0 Z " fill="#0E3558" transform="translate(737,824)"/>
<path d="M0 0 C0.33 0 0.66 0 1 0 C1.36923077 7.50769231 1.36923077 7.50769231 -0.5 10 C-0.995 10.33 -1.49 10.66 -2 11 C-1.125 3.375 -1.125 3.375 0 0 Z " fill="#0A2948" transform="translate(851,683)"/>
<path d="M0 0 C0.66 0 1.32 0 2 0 C3.35439668 2.70879335 3.06501451 5.00933268 3 8 C2.01 8.495 2.01 8.495 1 9 C0.67 6.03 0.34 3.06 0 0 Z " fill="#0A385F" transform="translate(481,360)"/>
<path d="M0 0 C-2.64 1.65 -5.28 3.3 -8 5 C-8 4.01 -8 3.02 -8 2 C-4.90310319 -1.09689681 -4.48560889 -1.12140222 0 0 Z " fill="#09375F" transform="translate(293,352)"/>
<path d="M0 0 C1.953125 0.61848958 3.90625 1.23697917 5.859375 1.85546875 C5.859375 2.18546875 5.859375 2.51546875 5.859375 2.85546875 C1.899375 2.85546875 -2.060625 2.85546875 -6.140625 2.85546875 C-2.140625 -0.14453125 -2.140625 -0.14453125 0 0 Z " fill="#0A2F53" transform="translate(276.140625,145.14453125)"/>
<path d="M0 0 C0.66 0 1.32 0 2 0 C0.8141763 3.37503669 -0.27573689 5.64722731 -3 8 C-2.45276317 4.62537285 -1.9451 2.91765 0 0 Z " fill="#133F61" transform="translate(826,745)"/>
<path d="M0 0 C1.31223496 3.93670488 0.24296256 6.12488144 -1 10 C-1.33 10 -1.66 10 -2 10 C-2.1953125 3.9453125 -2.1953125 3.9453125 -2 2 C-1.34 1.34 -0.68 0.68 0 0 Z " fill="#082E51" transform="translate(452,575)"/>
<path d="M0 0 C0.33 0 0.66 0 1 0 C1 4.95 1 9.9 1 15 C0.67 15 0.34 15 0 15 C0 10.05 0 5.1 0 0 Z " fill="#155580" transform="translate(184,605)"/>
<path d="M0 0 C4.62 0 9.24 0 14 0 C14 0.33 14 0.66 14 1 C9.38 1 4.76 1 0 1 C0 0.67 0 0.34 0 0 Z " fill="#2686BA" transform="translate(349,487)"/>
<path d="M0 0 C0.33 0 0.66 0 1 0 C1 3.63 1 7.26 1 11 C0.67 11 0.34 11 0 11 C0 7.37 0 3.74 0 0 Z " fill="#1C5A83" transform="translate(184,761)"/>
<path d="M0 0 C0.33 0 0.66 0 1 0 C1 3.63 1 7.26 1 11 C0.67 11 0.34 11 0 11 C0 7.37 0 3.74 0 0 Z " fill="#155581" transform="translate(184,549)"/>
<path d="M0 0 C0.33 0 0.66 0 1 0 C1 3.63 1 7.26 1 11 C0.67 11 0.34 11 0 11 C0 7.37 0 3.74 0 0 Z " fill="#155884" transform="translate(184,393)"/>
<path d="M0 0 C3.3 0 6.6 0 10 0 C10 0.33 10 0.66 10 1 C6.7 1 3.4 1 0 1 C0 0.67 0 0.34 0 0 Z " fill="#195883" transform="translate(360,807)"/>
<path d="M0 0 C3.3 0 6.6 0 10 0 C10 0.33 10 0.66 10 1 C6.7 1 3.4 1 0 1 C0 0.67 0 0.34 0 0 Z " fill="#2788BB" transform="translate(415,487)"/>
<path d="M0 0 C3.3 0 6.6 0 10 0 C10 0.33 10 0.66 10 1 C6.7 1 3.4 1 0 1 C0 0.67 0 0.34 0 0 Z " fill="#2688BC" transform="translate(367,487)"/>
<path d="M0 0 C0.33 0 0.66 0 1 0 C1 2.97 1 5.94 1 9 C0.67 9 0.34 9 0 9 C0 6.03 0 3.06 0 0 Z " fill="#175782" transform="translate(184,664)"/>
<path d="M0 0 C2.64 0 5.28 0 8 0 C8 0.33 8 0.66 8 1 C5.36 1 2.72 1 0 1 C0 0.67 0 0.34 0 0 Z " fill="#185481" transform="translate(512,807)"/>
<path d="M0 0 C2.31 0 4.62 0 7 0 C7 0.33 7 0.66 7 1 C4.69 1 2.38 1 0 1 C0 0.67 0 0.34 0 0 Z " fill="#1D557D" transform="translate(641,847)"/>
<path d="M0 0 C2.31 0 4.62 0 7 0 C7 0.33 7 0.66 7 1 C4.69 1 2.38 1 0 1 C0 0.67 0 0.34 0 0 Z " fill="#185682" transform="translate(483,807)"/>
<path d="M0 0 C2.31 0 4.62 0 7 0 C7 0.33 7 0.66 7 1 C4.69 1 2.38 1 0 1 C0 0.67 0 0.34 0 0 Z " fill="#17557F" transform="translate(336,807)"/>
<path d="M0 0 C0.33 0 0.66 0 1 0 C1 2.31 1 4.62 1 7 C0.67 7 0.34 7 0 7 C0 4.69 0 2.38 0 0 Z " fill="#15547F" transform="translate(184,541)"/>
<path d="M0 0 C2.31 0 4.62 0 7 0 C7 0.33 7 0.66 7 1 C4.69 1 2.38 1 0 1 C0 0.67 0 0.34 0 0 Z " fill="#2788BB" transform="translate(437,487)"/>
<path d="M0 0 C2.31 0 4.62 0 7 0 C7 0.33 7 0.66 7 1 C4.69 1 2.38 1 0 1 C0 0.67 0 0.34 0 0 Z " fill="#2686BA" transform="translate(378,487)"/>
<path d="M0 0 C1.98 0 3.96 0 6 0 C6 0.33 6 0.66 6 1 C4.02 1 2.04 1 0 1 C0 0.67 0 0.34 0 0 Z " fill="#185581" transform="translate(402,807)"/>
<path d="M0 0 C1.98 0 3.96 0 6 0 C6 0.33 6 0.66 6 1 C4.02 1 2.04 1 0 1 C0 0.67 0 0.34 0 0 Z " fill="#185783" transform="translate(348,807)"/>
<path d="M0 0 C1.98 0 3.96 0 6 0 C6 0.33 6 0.66 6 1 C4.02 1 2.04 1 0 1 C0 0.67 0 0.34 0 0 Z " fill="#195783" transform="translate(300,807)"/>
<path d="M0 0 C0.99 0.33 1.98 0.66 3 1 C1.68 1.33 0.36 1.66 -1 2 C-0.67 1.34 -0.34 0.68 0 0 Z " fill="#1B5C86" transform="translate(482,764)"/>
<path d="M0 0 C0.33 0 0.66 0 1 0 C1 1.98 1 3.96 1 6 C0.67 6 0.34 6 0 6 C0 4.02 0 2.04 0 0 Z " fill="#175984" transform="translate(184,657)"/>
<path d="M0 0 C0.33 0 0.66 0 1 0 C1 1.98 1 3.96 1 6 C0.67 6 0.34 6 0 6 C0 4.02 0 2.04 0 0 Z " fill="#175984" transform="translate(184,648)"/>
<path d="M0 0 C0.33 0 0.66 0 1 0 C1 1.98 1 3.96 1 6 C0.67 6 0.34 6 0 6 C0 4.02 0 2.04 0 0 Z " fill="#1D5D87" transform="translate(440,619)"/>
<path d="M0 0 C1.98 0 3.96 0 6 0 C6 0.33 6 0.66 6 1 C4.02 1 2.04 1 0 1 C0 0.67 0 0.34 0 0 Z " fill="#2683B7" transform="translate(451,487)"/>
<path d="M0 0 C1.98 0 3.96 0 6 0 C6 0.33 6 0.66 6 1 C4.02 1 2.04 1 0 1 C0 0.67 0 0.34 0 0 Z " fill="#2588BC" transform="translate(408,487)"/>
<path d="M0 0 C1.65 0 3.3 0 5 0 C5 0.33 5 0.66 5 1 C3.35 1 1.7 1 0 1 C0 0.67 0 0.34 0 0 Z " fill="#185681" transform="translate(491,807)"/>
<path d="M0 0 C0.33 0 0.66 0 1 0 C1 1.65 1 3.3 1 5 C0.67 5 0.34 5 0 5 C0 3.35 0 1.7 0 0 Z " fill="#175883" transform="translate(184,625)"/>
<path d="M0 0 C1.65 0 3.3 0 5 0 C5 0.33 5 0.66 5 1 C3.35 1 1.7 1 0 1 C0 0.67 0 0.34 0 0 Z " fill="#2685BA" transform="translate(445,487)"/>
<path d="M0 0 C1.65 0 3.3 0 5 0 C5 0.33 5 0.66 5 1 C3.35 1 1.7 1 0 1 C0 0.67 0 0.34 0 0 Z " fill="#2589BC" transform="translate(399,487)"/>
<path d="M0 0 C1.65 0 3.3 0 5 0 C5 0.33 5 0.66 5 1 C3.35 1 1.7 1 0 1 C0 0.67 0 0.34 0 0 Z " fill="#2688BD" transform="translate(391,487)"/>
<path d="M0 0 C0.66 0 1.32 0 2 0 C1.67 0.99 1.34 1.98 1 3 C0.67 2.01 0.34 1.02 0 0 Z " fill="#19557D" transform="translate(790,480)"/>
<path d="M0 0 C0.33 0.99 0.66 1.98 1 3 C0.34 3 -0.32 3 -1 3 C-0.67 2.01 -0.34 1.02 0 0 Z " fill="#2A95CC" transform="translate(439,389)"/>
<path d="M0 0 C0.33 0 0.66 0 1 0 C1 1.65 1 3.3 1 5 C0.67 5 0.34 5 0 5 C0 3.35 0 1.7 0 0 Z " fill="#145885" transform="translate(184,295)"/>
<path d="M0 0 C0.99 0 1.98 0 3 0 C2.67 0.66 2.34 1.32 2 2 C1.34 1.34 0.68 0.68 0 0 Z " fill="#1E567E" transform="translate(627,846)"/>
<path d="M0 0 C4 1 4 1 4 1 Z " fill="#185783" transform="translate(467,807)"/>
<path d="M0 0 C4 1 4 1 4 1 Z " fill="#195884" transform="translate(355,807)"/>
<path d="M0 0 C0.99 0.495 0.99 0.495 2 1 C1.34 1.66 0.68 2.32 0 3 C0 2.01 0 1.02 0 0 Z " fill="#21597E" transform="translate(184,781)"/>
<path d="M0 0 C4 1 4 1 4 1 Z " fill="#1D5D88" transform="translate(228,764)"/>
<path d="M0 0 C1.485 0.99 1.485 0.99 3 2 C2.01 2 1.02 2 0 2 C0 1.34 0 0.68 0 0 Z " fill="#1B5A84" transform="translate(464,738)"/>
<path d="M0 0 C1 4 1 4 1 4 Z " fill="#165580" transform="translate(184,632)"/>
<path d="M0 0 C0 3 0 3 0 3 Z " fill="#1D5E87" transform="translate(441,610)"/>
<path d="M0 0 C0.99 0.495 0.99 0.495 2 1 C1.34 1.66 0.68 2.32 0 3 C0 2.01 0 1.02 0 0 Z " fill="#216B98" transform="translate(488,496)"/>
<path d="M0 0 C4 1 4 1 4 1 Z " fill="#2789BB" transform="translate(386,487)"/>
<path d="M0 0 C0.33 0.66 0.66 1.32 1 2 C0.01 1.67 -0.98 1.34 -2 1 C-1.34 0.67 -0.68 0.34 0 0 Z " fill="#1E6895" transform="translate(606,432)"/>
<path d="M0 0 C1 4 1 4 1 4 Z " fill="#145784" transform="translate(184,320)"/>
<path d="M0 0 C3 1 3 1 3 1 Z " fill="#1D537A" transform="translate(584,837)"/>
<path d="M0 0 C3 1 3 1 3 1 Z " fill="#1A5784" transform="translate(500,807)"/>
<path d="M0 0 C3 1 3 1 3 1 Z " fill="#1A5885" transform="translate(436,807)"/>
<path d="M0 0 C3 1 3 1 3 1 Z " fill="#1A5786" transform="translate(428,807)"/>
<path d="M0 0 C3 1 3 1 3 1 Z " fill="#1A5784" transform="translate(411,807)"/>
<path d="M0 0 C3 1 3 1 3 1 Z " fill="#1A5785" transform="translate(372,807)"/>
<path d="M0 0 C3 1 3 1 3 1 Z " fill="#185483" transform="translate(324,807)"/>
<path d="M0 0 C3 1 3 1 3 1 Z " fill="#1A5985" transform="translate(277,807)"/>
<path d="M0 0 C3 1 3 1 3 1 Z " fill="#1A5A86" transform="translate(268,807)"/>
<path d="M0 0 C0.99 0.495 0.99 0.495 2 1 C1.01 1.495 1.01 1.495 0 2 C0 1.34 0 0.68 0 0 Z " fill="#1C5B84" transform="translate(464,741)"/>
<path d="M0 0 C0.66 0 1.32 0 2 0 C1.67 0.66 1.34 1.32 1 2 C0.67 1.34 0.34 0.68 0 0 Z " fill="#1C5C85" transform="translate(464,736)"/>
<path d="M0 0 C0.33 0.66 0.66 1.32 1 2 C0.34 1.67 -0.32 1.34 -1 1 C-0.67 0.67 -0.34 0.34 0 0 Z " fill="#1E5C87" transform="translate(452,709)"/>
<path d="" fill="#175885" transform="translate(0,0)"/>
<path d="M0 0 C0.66 0 1.32 0 2 0 C1.67 0.66 1.34 1.32 1 2 C0.67 1.34 0.34 0.68 0 0 Z " fill="#1E5E86" transform="translate(442,676)"/>
<path d="M0 0 C0.66 0 1.32 0 2 0 C1.67 0.66 1.34 1.32 1 2 C0.67 1.34 0.34 0.68 0 0 Z " fill="#1E5D86" transform="translate(440,664)"/>
<path d="" fill="#1F6087" transform="translate(0,0)"/>
<path d="" fill="#155480" transform="translate(0,0)"/>
<path d="M0 0 C0.66 0.66 1.32 1.32 2 2 C1.34 2 0.68 2 0 2 C0 1.34 0 0.68 0 0 Z " fill="#1E628C" transform="translate(456,554)"/>
<path d="M0 0 C3 1 3 1 3 1 Z " fill="#2788C0" transform="translate(401,445)"/>
<path d="M0 0 C3 1 3 1 3 1 Z " fill="#2A8FC6" transform="translate(384,445)"/>
<path d="" fill="#155884" transform="translate(0,0)"/>
<path d="" fill="#145988" transform="translate(0,0)"/>
<path d="" fill="#145885" transform="translate(0,0)"/>
<path d="M0 0 C0.33 0.66 0.66 1.32 1 2 C0.34 1.67 -0.32 1.34 -1 1 C-0.67 0.67 -0.34 0.34 0 0 Z " fill="#2B96CC" transform="translate(422,390)"/>
<path d="M0 0 C3 1 3 1 3 1 Z " fill="#2C97CD" transform="translate(353,389)"/>
<path d="M0 0 C0.66 0.66 1.32 1.32 2 2 C1.34 2 0.68 2 0 2 C0 1.34 0 0.68 0 0 Z " fill="#288EC4" transform="translate(288,386)"/>
<path d="" fill="#165A87" transform="translate(0,0)"/>
<path d="M0 0 C3 1 3 1 3 1 Z " fill="#2B91C8" transform="translate(418,292)"/>
<path d="M0 0 C0.99 0.495 0.99 0.495 2 1 C1.01 1.495 1.01 1.495 0 2 C0 1.34 0 0.68 0 0 Z " fill="#278CC1" transform="translate(283,285)"/>
<path d="M0 0 C0.33 0.66 0.66 1.32 1 2 C0.34 1.67 -0.32 1.34 -1 1 C-0.67 0.67 -0.34 0.34 0 0 Z " fill="#1E6D9D" transform="translate(681,189)"/>
<path d="M0 0 C0.99 0.495 0.99 0.495 2 1 C1.01 1.495 1.01 1.495 0 2 C0 1.34 0 0.68 0 0 Z " fill="#2375A7" transform="translate(230,187)"/>
<path d="" fill="#1C5A84" transform="translate(0,0)"/>
<path d="" fill="#14527C" transform="translate(0,0)"/>
<path d="M0 0 C2 1 2 1 2 1 Z " fill="#1D567C" transform="translate(653,847)"/>
<path d="M0 0 C2 1 2 1 2 1 Z " fill="#215980" transform="translate(680,845)"/>
<path d="M0 0 C2 1 2 1 2 1 Z " fill="#1E557B" transform="translate(587,838)"/>
<path d="" fill="#1D547B" transform="translate(0,0)"/>
<path d="M0 0 C2 1 2 1 2 1 Z " fill="#1E547B" transform="translate(560,827)"/>
<path d="M0 0 C2 1 2 1 2 1 Z " fill="#1B5680" transform="translate(524,807)"/>
<path d="M0 0 C2 1 2 1 2 1 Z " fill="#1B5986" transform="translate(477,807)"/>
<path d="M0 0 C2 1 2 1 2 1 Z " fill="#1C5984" transform="translate(460,807)"/>
<path d="M0 0 C2 1 2 1 2 1 Z " fill="#195884" transform="translate(453,807)"/>
<path d="M0 0 C2 1 2 1 2 1 Z " fill="#195983" transform="translate(450,807)"/>
<path d="M0 0 C2 1 2 1 2 1 Z " fill="#1B5885" transform="translate(432,807)"/>
<path d="M0 0 C2 1 2 1 2 1 Z " fill="#175783" transform="translate(424,807)"/>
<path d="M0 0 C2 1 2 1 2 1 Z " fill="#1A5883" transform="translate(397,807)"/>
<path d="M0 0 C2 1 2 1 2 1 Z " fill="#195681" transform="translate(392,807)"/>
<path d="M0 0 C2 1 2 1 2 1 Z " fill="#185884" transform="translate(389,807)"/>
<path d="M0 0 C2 1 2 1 2 1 Z " fill="#185684" transform="translate(344,807)"/>
<path d="M0 0 C2 1 2 1 2 1 Z " fill="#1B5884" transform="translate(332,807)"/>
<path d="M0 0 C2 1 2 1 2 1 Z " fill="#1A5785" transform="translate(317,807)"/>
<path d="M0 0 C2 1 2 1 2 1 Z " fill="#1B5984" transform="translate(285,807)"/>
<path d="M0 0 C2 1 2 1 2 1 Z " fill="#1A5A87" transform="translate(264,807)"/>
<path d="M0 0 C2 1 2 1 2 1 Z " fill="#1A5885" transform="translate(261,807)"/>
<path d="M0 0 C2 1 2 1 2 1 Z " fill="#195884" transform="translate(256,807)"/>
<path d="M0 0 C2 1 2 1 2 1 Z " fill="#1C5A86" transform="translate(245,807)"/>
<path d="M0 0 C2 1 2 1 2 1 Z " fill="#1B5A85" transform="translate(240,807)"/>
<path d="M0 0 C2 1 2 1 2 1 Z " fill="#1D5983" transform="translate(228,807)"/>
<path d="" fill="#1E608B" transform="translate(0,0)"/>
<path d="" fill="#205981" transform="translate(0,0)"/>
<path d="" fill="#1D587F" transform="translate(0,0)"/>
<path d="" fill="#1D5C88" transform="translate(0,0)"/>
<path d="" fill="#1D5C86" transform="translate(0,0)"/>
<path d="" fill="#1F5B86" transform="translate(0,0)"/>
<path d="" fill="#1F5680" transform="translate(0,0)"/>
<path d="" fill="#185985" transform="translate(0,0)"/>
<path d="" fill="#185883" transform="translate(0,0)"/>
<path d="" fill="#205E88" transform="translate(0,0)"/>
<path d="" fill="#205D86" transform="translate(0,0)"/>
<path d="" fill="#1E5E86" transform="translate(0,0)"/>
<path d="" fill="#1D587F" transform="translate(0,0)"/>
<path d="M0 0 C2 1 2 1 2 1 Z " fill="#1F5F88" transform="translate(441,592)"/>
<path d="" fill="#155581" transform="translate(0,0)"/>
<path d="" fill="#165681" transform="translate(0,0)"/>
<path d="" fill="#155681" transform="translate(0,0)"/>
<path d="" fill="#1F6088" transform="translate(0,0)"/>
<path d="" fill="#14537E" transform="translate(0,0)"/>
<path d="" fill="#1E557D" transform="translate(0,0)"/>
<path d="" fill="#1E648E" transform="translate(0,0)"/>
<path d="M0 0 C2 1 2 1 2 1 Z " fill="#206995" transform="translate(502,488)"/>
<path d="M0 0 C2 1 2 1 2 1 Z " fill="#2689BC" transform="translate(431,487)"/>
<path d="M0 0 C2 1 2 1 2 1 Z " fill="#2889BD" transform="translate(426,487)"/>
<path d="M0 0 C2 1 2 1 2 1 Z " fill="#2789BC" transform="translate(364,487)"/>
<path d="M0 0 C2 1 2 1 2 1 Z " fill="#2885BB" transform="translate(343,487)"/>
<path d="M0 0 C2 1 2 1 2 1 Z " fill="#247FB2" transform="translate(292,486)"/>
<path d="M0 0 C2 1 2 1 2 1 Z " fill="#237DAF" transform="translate(290,485)"/>
<path d="M0 0 C2 1 2 1 2 1 Z " fill="#1D5984" transform="translate(752,456)"/>
<path d="M0 0 C2 1 2 1 2 1 Z " fill="#1F6793" transform="translate(545,456)"/>
<path d="M0 0 C2 1 2 1 2 1 Z " fill="#216997" transform="translate(537,456)"/>
<path d="M0 0 C2 1 2 1 2 1 Z " fill="#2786B8" transform="translate(280,451)"/>
<path d="M0 0 C2 1 2 1 2 1 Z " fill="#1E6792" transform="translate(560,448)"/>
<path d="M0 0 C2 1 2 1 2 1 Z " fill="#2888BF" transform="translate(456,445)"/>
<path d="M0 0 C2 1 2 1 2 1 Z " fill="#2A8CC3" transform="translate(417,445)"/>
<path d="M0 0 C2 1 2 1 2 1 Z " fill="#288BC2" transform="translate(393,445)"/>
<path d="M0 0 C2 1 2 1 2 1 Z " fill="#2A8DC5" transform="translate(369,445)"/>
<path d="M0 0 C2 1 2 1 2 1 Z " fill="#2789C1" transform="translate(313,445)"/>
<path d="" fill="#246E9B" transform="translate(0,0)"/>
<path d="M0 0 C2 1 2 1 2 1 Z " fill="#1E6995" transform="translate(609,432)"/>
<path d="" fill="#1A5984" transform="translate(0,0)"/>
<path d="" fill="#145884" transform="translate(0,0)"/>
<path d="M0 0 C2 1 2 1 2 1 Z " fill="#2A94C9" transform="translate(443,390)"/>
<path d="M0 0 C2 1 2 1 2 1 Z " fill="#2997CB" transform="translate(427,390)"/>
<path d="M0 0 C2 1 2 1 2 1 Z " fill="#2B97CD" transform="translate(403,390)"/>
<path d="M0 0 C2 1 2 1 2 1 Z " fill="#2D97CF" transform="translate(342,390)"/>
<path d="" fill="#2B97CD" transform="translate(0,0)"/>
<path d="M0 0 C2 1 2 1 2 1 Z " fill="#2C95C9" transform="translate(448,389)"/>
<path d="M0 0 C2 1 2 1 2 1 Z " fill="#2D98CE" transform="translate(409,389)"/>
<path d="M0 0 C2 1 2 1 2 1 Z " fill="#2B98CE" transform="translate(377,389)"/>
<path d="M0 0 C2 1 2 1 2 1 Z " fill="#2C98D1" transform="translate(373,389)"/>
<path d="M0 0 C2 1 2 1 2 1 Z " fill="#2C98CF" transform="translate(360,389)"/>
<path d="M0 0 C2 1 2 1 2 1 Z " fill="#2786BC" transform="translate(479,383)"/>
<path d="" fill="#2589C1" transform="translate(0,0)"/>
<path d="M0 0 C2 1 2 1 2 1 Z " fill="#298EC4" transform="translate(292,348)"/>
<path d="M0 0 C2 1 2 1 2 1 Z " fill="#2C92C5" transform="translate(377,347)"/>
<path d="M0 0 C2 1 2 1 2 1 Z " fill="#2B8FC6" transform="translate(291,346)"/>
<path d="" fill="#298FC5" transform="translate(0,0)"/>
<path d="M0 0 C2 1 2 1 2 1 Z " fill="#2C92C7" transform="translate(373,248)"/>
<path d="M0 0 C2 1 2 1 2 1 Z " fill="#2587C1" transform="translate(558,187)"/>
<path d="M0 0 C2 1 2 1 2 1 Z " fill="#2788C0" transform="translate(542,187)"/>
<path d="M0 0 C2 1 2 1 2 1 Z " fill="#2689C2" transform="translate(463,187)"/>
<path d="M0 0 C2 1 2 1 2 1 Z " fill="#2178AE" transform="translate(238,187)"/>
<path d="M0 0 C2 1 2 1 2 1 Z " fill="#185982" transform="translate(193,160)"/>
<path d="M0 0 C2 1 2 1 2 1 Z " fill="#164F7A" transform="translate(704,152)"/>
<path d="M0 0 C2 1 2 1 2 1 Z " fill="#19557F" transform="translate(201,152)"/>
<path d="M0 0 C2 1 2 1 2 1 Z " fill="#13537A" transform="translate(278,145)"/>
<path d="M0 0 C2 1 2 1 2 1 Z " fill="#154F79" transform="translate(221,145)"/>
<path d="M0 0 C2 1 2 1 2 1 Z " fill="#114E79" transform="translate(336,144)"/>
<path d="M0 0 C2 1 2 1 2 1 Z " fill="#14507A" transform="translate(320,144)"/>
<path d="M0 0 C2 1 2 1 2 1 Z " fill="#13507B" transform="translate(310,144)"/>
<path d="" fill="#284052" transform="translate(0,0)"/>
<path d="" fill="#1E577E" transform="translate(0,0)"/>
<path d="" fill="#1D587F" transform="translate(0,0)"/>
<path d="" fill="#1E577F" transform="translate(0,0)"/>
<path d="" fill="#1E547A" transform="translate(0,0)"/>
<path d="" fill="#20597F" transform="translate(0,0)"/>
<path d="" fill="#1F567B" transform="translate(0,0)"/>
<path d="" fill="#20577C" transform="translate(0,0)"/>
<path d="" fill="#235B83" transform="translate(0,0)"/>
<path d="" fill="#1F597E" transform="translate(0,0)"/>
<path d="" fill="#1E547C" transform="translate(0,0)"/>
<path d="" fill="#1E557B" transform="translate(0,0)"/>
<path d="" fill="#215880" transform="translate(0,0)"/>
<path d="" fill="#1F547E" transform="translate(0,0)"/>
<path d="" fill="#1A547B" transform="translate(0,0)"/>
<path d="" fill="#1E547A" transform="translate(0,0)"/>
<path d="" fill="#245A80" transform="translate(0,0)"/>
<path d="" fill="#1D5077" transform="translate(0,0)"/>
<path d="" fill="#1E5883" transform="translate(0,0)"/>
<path d="" fill="#1B5682" transform="translate(0,0)"/>
<path d="" fill="#195983" transform="translate(0,0)"/>
<path d="" fill="#1A5886" transform="translate(0,0)"/>
<path d="" fill="#1B5784" transform="translate(0,0)"/>
<path d="" fill="#1B5883" transform="translate(0,0)"/>
<path d="" fill="#185681" transform="translate(0,0)"/>
<path d="" fill="#195985" transform="translate(0,0)"/>
<path d="" fill="#165480" transform="translate(0,0)"/>
<path d="" fill="#175883" transform="translate(0,0)"/>
<path d="" fill="#185783" transform="translate(0,0)"/>
<path d="" fill="#175682" transform="translate(0,0)"/>
<path d="" fill="#175782" transform="translate(0,0)"/>
<path d="" fill="#185481" transform="translate(0,0)"/>
<path d="" fill="#185682" transform="translate(0,0)"/>
<path d="" fill="#195883" transform="translate(0,0)"/>
<path d="" fill="#1C5883" transform="translate(0,0)"/>
<path d="" fill="#1A5683" transform="translate(0,0)"/>
<path d="" fill="#1B5A84" transform="translate(0,0)"/>
<path d="" fill="#1A5A86" transform="translate(0,0)"/>
<path d="" fill="#1D5A87" transform="translate(0,0)"/>
<path d="" fill="#1D5A86" transform="translate(0,0)"/>
<path d="" fill="#1C5580" transform="translate(0,0)"/>
<path d="" fill="#1F587D" transform="translate(0,0)"/>
<path d="" fill="#215C84" transform="translate(0,0)"/>
<path d="" fill="#265A7C" transform="translate(0,0)"/>
<path d="" fill="#245A80" transform="translate(0,0)"/>
<path d="" fill="#22577F" transform="translate(0,0)"/>
<path d="" fill="#225980" transform="translate(0,0)"/>
<path d="" fill="#24597D" transform="translate(0,0)"/>
<path d="" fill="#205C84" transform="translate(0,0)"/>
<path d="" fill="#225981" transform="translate(0,0)"/>
<path d="" fill="#205C84" transform="translate(0,0)"/>
<path d="" fill="#235A81" transform="translate(0,0)"/>
<path d="" fill="#1D597F" transform="translate(0,0)"/>
<path d="" fill="#205981" transform="translate(0,0)"/>
<path d="" fill="#225A80" transform="translate(0,0)"/>
<path d="" fill="#1D5B85" transform="translate(0,0)"/>
<path d="" fill="#1F577F" transform="translate(0,0)"/>
<path d="" fill="#1E5B85" transform="translate(0,0)"/>
<path d="" fill="#1C5B88" transform="translate(0,0)"/>
<path d="" fill="#1C5B87" transform="translate(0,0)"/>
<path d="" fill="#1E5D85" transform="translate(0,0)"/>
<path d="" fill="#1F5D87" transform="translate(0,0)"/>
<path d="" fill="#1E567E" transform="translate(0,0)"/>
<path d="" fill="#185784" transform="translate(0,0)"/>
<path d="" fill="#1D5881" transform="translate(0,0)"/>
<path d="" fill="#175782" transform="translate(0,0)"/>
<path d="" fill="#1F5C85" transform="translate(0,0)"/>
<path d="" fill="#265A7F" transform="translate(0,0)"/>
<path d="" fill="#175A86" transform="translate(0,0)"/>
<path d="" fill="#235C80" transform="translate(0,0)"/>
<path d="" fill="#1C5D84" transform="translate(0,0)"/>
<path d="" fill="#1D5982" transform="translate(0,0)"/>
<path d="" fill="#185983" transform="translate(0,0)"/>
<path d="" fill="#165782" transform="translate(0,0)"/>
<path d="" fill="#1F5A84" transform="translate(0,0)"/>
<path d="" fill="#23597E" transform="translate(0,0)"/>
<path d="" fill="#1F5E88" transform="translate(0,0)"/>
<path d="" fill="#206087" transform="translate(0,0)"/>
<path d="" fill="#1F5F8A" transform="translate(0,0)"/>
<path d="" fill="#1F5E87" transform="translate(0,0)"/>
<path d="" fill="#1E5B81" transform="translate(0,0)"/>
<path d="" fill="#205A80" transform="translate(0,0)"/>
<path d="" fill="#15557F" transform="translate(0,0)"/>
<path d="" fill="#1F587C" transform="translate(0,0)"/>
<path d="" fill="#1E5F8A" transform="translate(0,0)"/>
<path d="" fill="#165882" transform="translate(0,0)"/>
<path d="" fill="#205C88" transform="translate(0,0)"/>
<path d="" fill="#1D5D89" transform="translate(0,0)"/>
<path d="" fill="#1E577D" transform="translate(0,0)"/>
<path d="" fill="#1F597C" transform="translate(0,0)"/>
<path d="" fill="#1F638D" transform="translate(0,0)"/>
<path d="" fill="#1E6491" transform="translate(0,0)"/>
<path d="" fill="#1D577D" transform="translate(0,0)"/>
<path d="" fill="#206692" transform="translate(0,0)"/>
<path d="" fill="#1F6594" transform="translate(0,0)"/>
<path d="" fill="#206792" transform="translate(0,0)"/>
<path d="" fill="#1E537B" transform="translate(0,0)"/>
<path d="" fill="#1D6392" transform="translate(0,0)"/>
<path d="" fill="#16557F" transform="translate(0,0)"/>
<path d="" fill="#1C547C" transform="translate(0,0)"/>
<path d="" fill="#1D587D" transform="translate(0,0)"/>
<path d="" fill="#1E547A" transform="translate(0,0)"/>
<path d="" fill="#1C557C" transform="translate(0,0)"/>
<path d="" fill="#1A537E" transform="translate(0,0)"/>
<path d="" fill="#206991" transform="translate(0,0)"/>
<path d="" fill="#2580B3" transform="translate(0,0)"/>
<path d="" fill="#2780B3" transform="translate(0,0)"/>
<path d="" fill="#2789BD" transform="translate(0,0)"/>
<path d="" fill="#2889BC" transform="translate(0,0)"/>
<path d="" fill="#267FB1" transform="translate(0,0)"/>
<path d="" fill="#2579A9" transform="translate(0,0)"/>
<path d="" fill="#267AAA" transform="translate(0,0)"/>
<path d="" fill="#216995" transform="translate(0,0)"/>
<path d="" fill="#1F6693" transform="translate(0,0)"/>
<path d="" fill="#206993" transform="translate(0,0)"/>
<path d="" fill="#2A82B6" transform="translate(0,0)"/>
<path d="" fill="#1F6991" transform="translate(0,0)"/>
<path d="" fill="#206997" transform="translate(0,0)"/>
<path d="" fill="#2380B2" transform="translate(0,0)"/>
<path d="" fill="#2580B2" transform="translate(0,0)"/>
<path d="" fill="#247DB1" transform="translate(0,0)"/>
<path d="" fill="#1F6B94" transform="translate(0,0)"/>
<path d="" fill="#1D577E" transform="translate(0,0)"/>
<path d="" fill="#1F537D" transform="translate(0,0)"/>
<path d="" fill="#2881B7" transform="translate(0,0)"/>
<path d="" fill="#2880B4" transform="translate(0,0)"/>
<path d="" fill="#206997" transform="translate(0,0)"/>
<path d="" fill="#1D5B83" transform="translate(0,0)"/>
<path d="" fill="#1E6592" transform="translate(0,0)"/>
<path d="" fill="#1C5983" transform="translate(0,0)"/>
<path d="" fill="#1B5681" transform="translate(0,0)"/>
<path d="" fill="#1F6592" transform="translate(0,0)"/>
<path d="" fill="#1E5A82" transform="translate(0,0)"/>
<path d="" fill="#206792" transform="translate(0,0)"/>
<path d="" fill="#226995" transform="translate(0,0)"/>
<path d="" fill="#1F6897" transform="translate(0,0)"/>
<path d="" fill="#1F6A97" transform="translate(0,0)"/>
<path d="" fill="#206897" transform="translate(0,0)"/>
<path d="" fill="#206898" transform="translate(0,0)"/>
<path d="" fill="#2379A9" transform="translate(0,0)"/>
<path d="" fill="#226B98" transform="translate(0,0)"/>
<path d="" fill="#2885B9" transform="translate(0,0)"/>
<path d="" fill="#226997" transform="translate(0,0)"/>
<path d="" fill="#236B98" transform="translate(0,0)"/>
<path d="" fill="#216E9A" transform="translate(0,0)"/>
<path d="" fill="#257EB2" transform="translate(0,0)"/>
<path d="" fill="#216C99" transform="translate(0,0)"/>
<path d="" fill="#216F99" transform="translate(0,0)"/>
<path d="" fill="#2585B7" transform="translate(0,0)"/>
<path d="" fill="#2786BA" transform="translate(0,0)"/>
<path d="" fill="#1A5D86" transform="translate(0,0)"/>
<path d="" fill="#246B9A" transform="translate(0,0)"/>
<path d="" fill="#2787BB" transform="translate(0,0)"/>
<path d="" fill="#2888C0" transform="translate(0,0)"/>
<path d="" fill="#298BC2" transform="translate(0,0)"/>
<path d="" fill="#2A8FC4" transform="translate(0,0)"/>
<path d="" fill="#298CC5" transform="translate(0,0)"/>
<path d="" fill="#2A8DC6" transform="translate(0,0)"/>
<path d="" fill="#2A90C9" transform="translate(0,0)"/>
<path d="" fill="#2B8EC6" transform="translate(0,0)"/>
<path d="" fill="#2C8DC2" transform="translate(0,0)"/>
<path d="" fill="#226B98" transform="translate(0,0)"/>
<path d="" fill="#1F5D88" transform="translate(0,0)"/>
<path d="" fill="#2B93C9" transform="translate(0,0)"/>
<path d="" fill="#206993" transform="translate(0,0)"/>
<path d="" fill="#1C608A" transform="translate(0,0)"/>
<path d="" fill="#1F6793" transform="translate(0,0)"/>
<path d="" fill="#216999" transform="translate(0,0)"/>
<path d="" fill="#1B5B87" transform="translate(0,0)"/>
<path d="" fill="#236A99" transform="translate(0,0)"/>
<path d="" fill="#216E99" transform="translate(0,0)"/>
<path d="" fill="#216994" transform="translate(0,0)"/>
<path d="" fill="#1B5B87" transform="translate(0,0)"/>
<path d="" fill="#246E9A" transform="translate(0,0)"/>
<path d="" fill="#1D6793" transform="translate(0,0)"/>
<path d="" fill="#206995" transform="translate(0,0)"/>
<path d="" fill="#246D9C" transform="translate(0,0)"/>
<path d="" fill="#246B98" transform="translate(0,0)"/>
<path d="" fill="#226C9A" transform="translate(0,0)"/>
<path d="" fill="#1A5C84" transform="translate(0,0)"/>
<path d="" fill="#226E9B" transform="translate(0,0)"/>
<path d="" fill="#185882" transform="translate(0,0)"/>
<path d="" fill="#1F6A99" transform="translate(0,0)"/>
<path d="" fill="#185985" transform="translate(0,0)"/>
<path d="" fill="#175882" transform="translate(0,0)"/>
<path d="" fill="#185883" transform="translate(0,0)"/>
<path d="" fill="#185685" transform="translate(0,0)"/>
<path d="" fill="#1F6F9F" transform="translate(0,0)"/>
<path d="" fill="#175780" transform="translate(0,0)"/>
<path d="" fill="#2999CE" transform="translate(0,0)"/>
<path d="" fill="#2A98D0" transform="translate(0,0)"/>
<path d="" fill="#2B97CD" transform="translate(0,0)"/>
<path d="" fill="#2B99CE" transform="translate(0,0)"/>
<path d="" fill="#2B98CE" transform="translate(0,0)"/>
<path d="" fill="#2A97CF" transform="translate(0,0)"/>
<path d="" fill="#2B92C9" transform="translate(0,0)"/>
<path d="" fill="#2C93C9" transform="translate(0,0)"/>
<path d="" fill="#2A95C9" transform="translate(0,0)"/>
<path d="" fill="#2A94CB" transform="translate(0,0)"/>
<path d="" fill="#2A97CD" transform="translate(0,0)"/>
<path d="" fill="#2D97CD" transform="translate(0,0)"/>
<path d="" fill="#2A98D0" transform="translate(0,0)"/>
<path d="" fill="#2A96CD" transform="translate(0,0)"/>
<path d="" fill="#2C98CE" transform="translate(0,0)"/>
<path d="" fill="#2B98CE" transform="translate(0,0)"/>
<path d="" fill="#2D97CC" transform="translate(0,0)"/>
<path d="" fill="#2C98CC" transform="translate(0,0)"/>
<path d="" fill="#2B95CC" transform="translate(0,0)"/>
<path d="" fill="#2B92CA" transform="translate(0,0)"/>
<path d="" fill="#2C96CC" transform="translate(0,0)"/>
<path d="" fill="#2C9AD0" transform="translate(0,0)"/>
<path d="" fill="#2B9BCF" transform="translate(0,0)"/>
<path d="" fill="#2C97CD" transform="translate(0,0)"/>
<path d="" fill="#2C97CF" transform="translate(0,0)"/>
<path d="" fill="#2B95CC" transform="translate(0,0)"/>
<path d="" fill="#2D9BD0" transform="translate(0,0)"/>
<path d="" fill="#2B99CF" transform="translate(0,0)"/>
<path d="" fill="#2C99D0" transform="translate(0,0)"/>
<path d="" fill="#2B97CD" transform="translate(0,0)"/>
<path d="" fill="#2D99CD" transform="translate(0,0)"/>
<path d="" fill="#2D9AD0" transform="translate(0,0)"/>
<path d="" fill="#2A92CD" transform="translate(0,0)"/>
<path d="" fill="#2B8AC0" transform="translate(0,0)"/>
<path d="" fill="#298CBD" transform="translate(0,0)"/>
<path d="" fill="#2889C1" transform="translate(0,0)"/>
<path d="" fill="#298BC0" transform="translate(0,0)"/>
<path d="" fill="#2788C0" transform="translate(0,0)"/>
<path d="" fill="#278CC3" transform="translate(0,0)"/>
<path d="" fill="#2073A5" transform="translate(0,0)"/>
<path d="" fill="#2988B9" transform="translate(0,0)"/>
<path d="" fill="#2075A7" transform="translate(0,0)"/>
<path d="" fill="#2787BB" transform="translate(0,0)"/>
<path d="" fill="#2B8EC7" transform="translate(0,0)"/>
<path d="" fill="#165783" transform="translate(0,0)"/>
<path d="" fill="#268AC0" transform="translate(0,0)"/>
<path d="" fill="#145582" transform="translate(0,0)"/>
<path d="" fill="#268ABD" transform="translate(0,0)"/>
<path d="" fill="#2788BD" transform="translate(0,0)"/>
<path d="" fill="#165581" transform="translate(0,0)"/>
<path d="" fill="#175781" transform="translate(0,0)"/>
<path d="" fill="#2A8DC3" transform="translate(0,0)"/>
<path d="" fill="#2C8FC5" transform="translate(0,0)"/>
<path d="" fill="#2C8EC5" transform="translate(0,0)"/>
<path d="" fill="#2E91CA" transform="translate(0,0)"/>
<path d="" fill="#2E8FC5" transform="translate(0,0)"/>
<path d="" fill="#2C92C8" transform="translate(0,0)"/>
<path d="" fill="#2C91C7" transform="translate(0,0)"/>
<path d="" fill="#2D93C7" transform="translate(0,0)"/>
<path d="" fill="#2E91C7" transform="translate(0,0)"/>
<path d="" fill="#2E93C8" transform="translate(0,0)"/>
<path d="" fill="#2D92C7" transform="translate(0,0)"/>
<path d="" fill="#2D90C6" transform="translate(0,0)"/>
<path d="" fill="#2C97CC" transform="translate(0,0)"/>
<path d="" fill="#2F97CC" transform="translate(0,0)"/>
<path d="" fill="#2D98CC" transform="translate(0,0)"/>
<path d="" fill="#2D92C9" transform="translate(0,0)"/>
<path d="" fill="#2C90C6" transform="translate(0,0)"/>
<path d="" fill="#2380B2" transform="translate(0,0)"/>
<path d="" fill="#237FB2" transform="translate(0,0)"/>
<path d="" fill="#227FB4" transform="translate(0,0)"/>
<path d="" fill="#175683" transform="translate(0,0)"/>
<path d="" fill="#175583" transform="translate(0,0)"/>
<path d="" fill="#2B8BC4" transform="translate(0,0)"/>
<path d="" fill="#2C8EC5" transform="translate(0,0)"/>
<path d="" fill="#2D8FC6" transform="translate(0,0)"/>
<path d="" fill="#2B8FC5" transform="translate(0,0)"/>
<path d="" fill="#288DC4" transform="translate(0,0)"/>
<path d="" fill="#2C94CC" transform="translate(0,0)"/>
<path d="" fill="#2A91CA" transform="translate(0,0)"/>
<path d="" fill="#2B92C8" transform="translate(0,0)"/>
<path d="" fill="#2D95CD" transform="translate(0,0)"/>
<path d="" fill="#2D93CD" transform="translate(0,0)"/>
<path d="" fill="#2F93CA" transform="translate(0,0)"/>
<path d="" fill="#2D93CB" transform="translate(0,0)"/>
<path d="" fill="#2E92CA" transform="translate(0,0)"/>
<path d="" fill="#2687BA" transform="translate(0,0)"/>
<path d="" fill="#2683B7" transform="translate(0,0)"/>
<path d="" fill="#268ABD" transform="translate(0,0)"/>
<path d="" fill="#288CC1" transform="translate(0,0)"/>
<path d="" fill="#288CC1" transform="translate(0,0)"/>
<path d="" fill="#298AC0" transform="translate(0,0)"/>
<path d="" fill="#2381B8" transform="translate(0,0)"/>
<path d="" fill="#2786BC" transform="translate(0,0)"/>
<path d="" fill="#2587B9" transform="translate(0,0)"/>
<path d="" fill="#2685B8" transform="translate(0,0)"/>
<path d="" fill="#2583B7" transform="translate(0,0)"/>
<path d="" fill="#155682" transform="translate(0,0)"/>
<path d="" fill="#238BBF" transform="translate(0,0)"/>
<path d="" fill="#2583B9" transform="translate(0,0)"/>
<path d="" fill="#298BC4" transform="translate(0,0)"/>
<path d="" fill="#2990C5" transform="translate(0,0)"/>
<path d="" fill="#2684BA" transform="translate(0,0)"/>
<path d="" fill="#2B8DC4" transform="translate(0,0)"/>
<path d="" fill="#2B8DC3" transform="translate(0,0)"/>
<path d="" fill="#2C91C7" transform="translate(0,0)"/>
<path d="" fill="#2B96CB" transform="translate(0,0)"/>
<path d="" fill="#2A8FC6" transform="translate(0,0)"/>
<path d="" fill="#165783" transform="translate(0,0)"/>
<path d="" fill="#2B91C7" transform="translate(0,0)"/>
<path d="" fill="#2B93CA" transform="translate(0,0)"/>
<path d="" fill="#2992C8" transform="translate(0,0)"/>
<path d="" fill="#2D95C8" transform="translate(0,0)"/>
<path d="" fill="#2A94C9" transform="translate(0,0)"/>
<path d="" fill="#2C94C8" transform="translate(0,0)"/>
<path d="" fill="#2C93C8" transform="translate(0,0)"/>
<path d="" fill="#2B92C8" transform="translate(0,0)"/>
<path d="" fill="#2A92C8" transform="translate(0,0)"/>
<path d="" fill="#2B92C8" transform="translate(0,0)"/>
<path d="" fill="#2B92CA" transform="translate(0,0)"/>
<path d="" fill="#2B92C8" transform="translate(0,0)"/>
<path d="" fill="#2A93C8" transform="translate(0,0)"/>
<path d="" fill="#2891C7" transform="translate(0,0)"/>
<path d="" fill="#2A93CA" transform="translate(0,0)"/>
<path d="" fill="#2A93CB" transform="translate(0,0)"/>
<path d="" fill="#2B94CA" transform="translate(0,0)"/>
<path d="" fill="#2B94CA" transform="translate(0,0)"/>
<path d="" fill="#2A93C8" transform="translate(0,0)"/>
<path d="" fill="#2B95CB" transform="translate(0,0)"/>
<path d="" fill="#2B94C9" transform="translate(0,0)"/>
<path d="" fill="#2C94CB" transform="translate(0,0)"/>
<path d="" fill="#2C96CC" transform="translate(0,0)"/>
<path d="" fill="#185682" transform="translate(0,0)"/>
<path d="" fill="#2483B7" transform="translate(0,0)"/>
<path d="" fill="#165781" transform="translate(0,0)"/>
<path d="" fill="#2583B9" transform="translate(0,0)"/>
<path d="" fill="#155782" transform="translate(0,0)"/>
<path d="" fill="#2385B9" transform="translate(0,0)"/>
<path d="" fill="#165582" transform="translate(0,0)"/>
<path d="" fill="#2583B9" transform="translate(0,0)"/>
<path d="" fill="#247FB4" transform="translate(0,0)"/>
<path d="" fill="#175581" transform="translate(0,0)"/>
<path d="" fill="#165580" transform="translate(0,0)"/>
<path d="" fill="#2379AB" transform="translate(0,0)"/>
<path d="" fill="#298CC5" transform="translate(0,0)"/>
<path d="" fill="#288DC6" transform="translate(0,0)"/>
<path d="" fill="#226A98" transform="translate(0,0)"/>
<path d="" fill="#2273A3" transform="translate(0,0)"/>
<path d="" fill="#2175AB" transform="translate(0,0)"/>
<path d="" fill="#207AB1" transform="translate(0,0)"/>
<path d="" fill="#217EB4" transform="translate(0,0)"/>
<path d="" fill="#227DB5" transform="translate(0,0)"/>
<path d="" fill="#2587C1" transform="translate(0,0)"/>
<path d="" fill="#2686C0" transform="translate(0,0)"/>
<path d="" fill="#2686BF" transform="translate(0,0)"/>
<path d="" fill="#2588C1" transform="translate(0,0)"/>
<path d="" fill="#2488C0" transform="translate(0,0)"/>
<path d="" fill="#2487C0" transform="translate(0,0)"/>
<path d="" fill="#2787C4" transform="translate(0,0)"/>
<path d="" fill="#2789C1" transform="translate(0,0)"/>
<path d="" fill="#2789C1" transform="translate(0,0)"/>
<path d="" fill="#278AC3" transform="translate(0,0)"/>
<path d="" fill="#2784BF" transform="translate(0,0)"/>
<path d="" fill="#2885BE" transform="translate(0,0)"/>
<path d="" fill="#16537C" transform="translate(0,0)"/>
<path d="" fill="#19547F" transform="translate(0,0)"/>
<path d="" fill="#195A82" transform="translate(0,0)"/>
<path d="" fill="#19507A" transform="translate(0,0)"/>
<path d="" fill="#16527B" transform="translate(0,0)"/>
<path d="" fill="#175078" transform="translate(0,0)"/>
<path d="" fill="#16517B" transform="translate(0,0)"/>
<path d="" fill="#175079" transform="translate(0,0)"/>
<path d="" fill="#175179" transform="translate(0,0)"/>
<path d="" fill="#1B537B" transform="translate(0,0)"/>
<path d="" fill="#174E76" transform="translate(0,0)"/>
<path d="" fill="#15537B" transform="translate(0,0)"/>
<path d="" fill="#155077" transform="translate(0,0)"/>
<path d="" fill="#18527C" transform="translate(0,0)"/>
<path d="" fill="#175178" transform="translate(0,0)"/>
<path d="" fill="#15537C" transform="translate(0,0)"/>
<path d="" fill="#15517B" transform="translate(0,0)"/>
<path d="" fill="#154E78" transform="translate(0,0)"/>
<path d="" fill="#154F7B" transform="translate(0,0)"/>
<path d="" fill="#15527B" transform="translate(0,0)"/>
<path d="" fill="#124D7A" transform="translate(0,0)"/>
<path d="" fill="#13507B" transform="translate(0,0)"/>
<path d="" fill="#135079" transform="translate(0,0)"/>
<path d="" fill="#124E7A" transform="translate(0,0)"/>
<path d="" fill="#15517B" transform="translate(0,0)"/>
<path d="" fill="#14507B" transform="translate(0,0)"/>
<path d="" fill="#124E77" transform="translate(0,0)"/>
<path d="" fill="#13517B" transform="translate(0,0)"/>
<path d="" fill="#124E7A" transform="translate(0,0)"/>
<path d="" fill="#11507B" transform="translate(0,0)"/>
<path d="" fill="#12507D" transform="translate(0,0)"/>
<path d="" fill="#13507D" transform="translate(0,0)"/>
<path d="" fill="#14517C" transform="translate(0,0)"/>
<path d="" fill="#114F7B" transform="translate(0,0)"/>
<path d="" fill="#15527E" transform="translate(0,0)"/>
<path d="" fill="#15527E" transform="translate(0,0)"/>
<path d="" fill="#13507A" transform="translate(0,0)"/>
<path d="" fill="#16527A" transform="translate(0,0)"/>
<path d="" fill="#18547C" transform="translate(0,0)"/>
</svg>
